M48
; DRILL file {KiCad 5.1.10} date Mon Dec 13 16:46:39 2021
; FORMAT={-:-/ absolute / inch / decimal}
; #@! TF.CreationDate,2021-12-13T16:46:39-05:00
; #@! TF.GenerationSoftware,Kicad,Pcbnew,5.1.10
FMAT,2
INCH
T1C0.0315
T2C0.0394
%
G90
G05
T1
X1.615Y-3.14
X1.83Y-2.78
X1.915Y-3.14
X2.0425Y-3.145
X2.0425Y-3.445
X2.13Y-2.78
X2.185Y-3.145
X2.185Y-3.445
X2.31Y-2.68
X2.31Y-2.78
X2.31Y-2.88
X2.31Y-2.98
X2.31Y-3.08
X2.31Y-3.18
X2.31Y-3.28
X2.315Y-2.205
X2.61Y-2.68
X2.61Y-2.78
X2.61Y-2.88
X2.61Y-2.98
X2.61Y-3.08
X2.61Y-3.18
X2.61Y-3.28
X2.615Y-2.205
X2.78Y-2.48
X2.78Y-2.78
X2.78Y-3.1
X2.78Y-3.4
X2.92Y-3.37
X2.92Y-3.67
X3.1Y-2.06
X3.1Y-2.18
X3.1Y-2.3
X3.1Y-2.42
X3.1Y-2.54
X3.1Y-2.66
X3.1Y-2.78
X3.11Y-2.9
X3.11Y-3.19
X3.11Y-3.31
X3.11Y-3.43
X3.11Y-3.55
X3.11Y-3.67
X3.11Y-3.79
X3.11Y-3.91
X3.11Y-4.03
X3.4Y-2.06
X3.4Y-2.18
X3.4Y-2.3
X3.4Y-2.42
X3.4Y-2.54
X3.4Y-2.66
X3.4Y-2.78
X3.41Y-2.9
X3.41Y-3.19
X3.41Y-3.31
X3.41Y-3.43
X3.41Y-3.55
X3.41Y-3.67
X3.41Y-3.79
X3.41Y-3.91
X3.41Y-4.03
X3.6Y-2.06
X3.6Y-2.18
X3.6Y-2.3
X3.6Y-2.42
X3.6Y-2.54
X3.6Y-2.66
X3.6Y-2.78
X3.6Y-2.9
X3.6Y-3.02
X3.6Y-3.14
X3.6Y-3.26
X3.6Y-3.49
X3.6Y-3.61
X3.6Y-3.73
X3.6Y-3.85
X3.6Y-3.97
X3.9Y-2.06
X3.9Y-2.18
X3.9Y-2.3
X3.9Y-2.42
X3.9Y-2.54
X3.9Y-2.66
X3.9Y-2.78
X3.9Y-2.9
X3.9Y-3.02
X3.9Y-3.14
X3.9Y-3.26
X3.9Y-3.49
X3.9Y-3.61
X3.9Y-3.73
X3.9Y-3.85
X3.9Y-3.97
X4.41Y-2.06
X4.41Y-2.18
X4.41Y-2.3
X4.41Y-2.42
X4.41Y-2.54
X4.41Y-2.66
X4.41Y-2.78
X4.41Y-2.9
X4.41Y-3.02
X4.41Y-3.14
X4.41Y-3.26
X4.41Y-3.5
X4.41Y-3.62
X4.41Y-3.74
X4.41Y-3.86
X4.41Y-3.98
X4.71Y-2.06
X4.71Y-2.18
X4.71Y-2.3
X4.71Y-2.42
X4.71Y-2.54
X4.71Y-2.66
X4.71Y-2.78
X4.71Y-2.9
X4.71Y-3.02
X4.71Y-3.14
X4.71Y-3.26
X4.71Y-3.5
X4.71Y-3.62
X4.71Y-3.74
X4.71Y-3.86
X4.71Y-3.98
X4.87Y-2.06
X4.87Y-2.18
X4.87Y-2.3
X4.87Y-2.42
X4.87Y-2.54
X4.87Y-2.66
X4.87Y-2.78
X4.87Y-2.9
X4.87Y-3.02
X4.87Y-3.14
X4.87Y-3.26
X4.87Y-3.38
X4.87Y-3.5
X4.87Y-3.62
X4.87Y-3.74
X4.87Y-3.86
X5.17Y-2.06
X5.17Y-2.18
X5.17Y-2.3
X5.17Y-2.42
X5.17Y-2.54
X5.17Y-2.66
X5.17Y-2.78
X5.17Y-2.9
X5.17Y-3.02
X5.17Y-3.14
X5.17Y-3.26
X5.17Y-3.38
X5.17Y-3.5
X5.17Y-3.62
X5.17Y-3.74
X5.17Y-3.86
T2
X1.59Y-3.345
X1.59Y-3.445
X1.59Y-3.545
X1.59Y-3.645
X1.6Y-2.67
X1.6Y-2.77
X1.6Y-2.87
X1.6Y-2.97
X1.87Y-2.975
X1.97Y-2.975
X2.14Y-2.91
X2.14Y-3.01
X2.775Y-2.21
X2.775Y-2.31
X2.915Y-3.13
X2.915Y-3.23
X4.1Y-1.92
X4.1Y-2.02
X4.1Y-2.12
X4.1Y-2.22
X4.1Y-2.32
X4.1Y-2.42
X4.1Y-2.52
X4.1Y-2.62
X4.1Y-2.72
X4.1Y-2.82
X4.1Y-2.92
X4.1Y-3.02
X4.1Y-3.12
X4.1Y-3.22
X4.1Y-3.32
X4.1Y-3.42
X4.1Y-3.52
X4.1Y-3.62
X4.1Y-3.72
X4.1Y-3.82
X4.2Y-1.92
X4.2Y-2.02
X4.2Y-2.12
X4.2Y-2.22
X4.2Y-2.32
X4.2Y-2.42
X4.2Y-2.52
X4.2Y-2.62
X4.2Y-2.72
X4.2Y-2.82
X4.2Y-2.92
X4.2Y-3.02
X4.2Y-3.12
X4.2Y-3.22
X4.2Y-3.32
X4.2Y-3.42
X4.2Y-3.52
X4.2Y-3.62
X4.2Y-3.72
X4.2Y-3.82
T0
M30
