%TF.GenerationSoftware,KiCad,Pcbnew,5.1.10*%
%TF.CreationDate,2021-12-13T16:46:35-05:00*%
%TF.ProjectId,DACBoard,44414342-6f61-4726-942e-6b696361645f,rev?*%
%TF.SameCoordinates,Original*%
%TF.FileFunction,Legend,Bot*%
%TF.FilePolarity,Positive*%
%FSLAX46Y46*%
G04 Gerber Fmt 4.6, Leading zero omitted, Abs format (unit mm)*
G04 Created by KiCad (PCBNEW 5.1.10) date 2021-12-13 16:46:35*
%MOMM*%
%LPD*%
G01*
G04 APERTURE LIST*
%ADD10C,0.120000*%
%ADD11C,0.150000*%
G04 APERTURE END LIST*
D10*
%TO.C,J1*%
X51368000Y-76895000D02*
X51368000Y-75565000D01*
X50038000Y-76895000D02*
X51368000Y-76895000D01*
X48768000Y-76895000D02*
X48768000Y-74235000D01*
X48768000Y-74235000D02*
X46168000Y-74235000D01*
X48768000Y-76895000D02*
X46168000Y-76895000D01*
X46168000Y-76895000D02*
X46168000Y-74235000D01*
%TO.C,J3*%
X55686000Y-77784000D02*
X53026000Y-77784000D01*
X55686000Y-75184000D02*
X55686000Y-77784000D01*
X53026000Y-75184000D02*
X53026000Y-77784000D01*
X55686000Y-75184000D02*
X53026000Y-75184000D01*
X55686000Y-73914000D02*
X55686000Y-72584000D01*
X55686000Y-72584000D02*
X54356000Y-72584000D01*
%TO.C,J4*%
X69155000Y-60004000D02*
X70485000Y-60004000D01*
X69155000Y-58674000D02*
X69155000Y-60004000D01*
X69155000Y-57404000D02*
X71815000Y-57404000D01*
X71815000Y-57404000D02*
X71815000Y-54804000D01*
X69155000Y-57404000D02*
X69155000Y-54804000D01*
X69155000Y-54804000D02*
X71815000Y-54804000D01*
%TO.C,J5*%
X75371000Y-83372000D02*
X72711000Y-83372000D01*
X75371000Y-80772000D02*
X75371000Y-83372000D01*
X72711000Y-80772000D02*
X72711000Y-83372000D01*
X75371000Y-80772000D02*
X72711000Y-80772000D01*
X75371000Y-79502000D02*
X75371000Y-78172000D01*
X75371000Y-78172000D02*
X74041000Y-78172000D01*
%TO.C,J6*%
X39056000Y-83633000D02*
X41716000Y-83633000D01*
X39056000Y-91313000D02*
X39056000Y-83633000D01*
X41716000Y-91313000D02*
X41716000Y-83633000D01*
X39056000Y-91313000D02*
X41716000Y-91313000D01*
X39056000Y-92583000D02*
X39056000Y-93913000D01*
X39056000Y-93913000D02*
X40386000Y-93913000D01*
%TO.C,J7*%
X39310000Y-76768000D02*
X40640000Y-76768000D01*
X39310000Y-75438000D02*
X39310000Y-76768000D01*
X39310000Y-74168000D02*
X41970000Y-74168000D01*
X41970000Y-74168000D02*
X41970000Y-66488000D01*
X39310000Y-74168000D02*
X39310000Y-66488000D01*
X39310000Y-66488000D02*
X41970000Y-66488000D01*
%TO.C,R1*%
X130778000Y-97004000D02*
X130778000Y-96674000D01*
X130778000Y-96674000D02*
X124238000Y-96674000D01*
X124238000Y-96674000D02*
X124238000Y-97004000D01*
X130778000Y-99084000D02*
X130778000Y-99414000D01*
X130778000Y-99414000D02*
X124238000Y-99414000D01*
X124238000Y-99414000D02*
X124238000Y-99084000D01*
%TO.C,R2*%
X130778000Y-93626000D02*
X130778000Y-93956000D01*
X124238000Y-93626000D02*
X130778000Y-93626000D01*
X124238000Y-93956000D02*
X124238000Y-93626000D01*
X130778000Y-96366000D02*
X130778000Y-96036000D01*
X124238000Y-96366000D02*
X130778000Y-96366000D01*
X124238000Y-96036000D02*
X124238000Y-96366000D01*
%TO.C,R3*%
X130778000Y-90578000D02*
X130778000Y-90908000D01*
X124238000Y-90578000D02*
X130778000Y-90578000D01*
X124238000Y-90908000D02*
X124238000Y-90578000D01*
X130778000Y-93318000D02*
X130778000Y-92988000D01*
X124238000Y-93318000D02*
X130778000Y-93318000D01*
X124238000Y-92988000D02*
X124238000Y-93318000D01*
%TO.C,R4*%
X124238000Y-89940000D02*
X124238000Y-90270000D01*
X124238000Y-90270000D02*
X130778000Y-90270000D01*
X130778000Y-90270000D02*
X130778000Y-89940000D01*
X124238000Y-87860000D02*
X124238000Y-87530000D01*
X124238000Y-87530000D02*
X130778000Y-87530000D01*
X130778000Y-87530000D02*
X130778000Y-87860000D01*
%TO.C,R5*%
X130778000Y-84482000D02*
X130778000Y-84812000D01*
X124238000Y-84482000D02*
X130778000Y-84482000D01*
X124238000Y-84812000D02*
X124238000Y-84482000D01*
X130778000Y-87222000D02*
X130778000Y-86892000D01*
X124238000Y-87222000D02*
X130778000Y-87222000D01*
X124238000Y-86892000D02*
X124238000Y-87222000D01*
%TO.C,R6*%
X124238000Y-83844000D02*
X124238000Y-84174000D01*
X124238000Y-84174000D02*
X130778000Y-84174000D01*
X130778000Y-84174000D02*
X130778000Y-83844000D01*
X124238000Y-81764000D02*
X124238000Y-81434000D01*
X124238000Y-81434000D02*
X130778000Y-81434000D01*
X130778000Y-81434000D02*
X130778000Y-81764000D01*
%TO.C,R7*%
X130778000Y-78386000D02*
X130778000Y-78716000D01*
X124238000Y-78386000D02*
X130778000Y-78386000D01*
X124238000Y-78716000D02*
X124238000Y-78386000D01*
X130778000Y-81126000D02*
X130778000Y-80796000D01*
X124238000Y-81126000D02*
X130778000Y-81126000D01*
X124238000Y-80796000D02*
X124238000Y-81126000D01*
%TO.C,R8*%
X124238000Y-77748000D02*
X124238000Y-78078000D01*
X124238000Y-78078000D02*
X130778000Y-78078000D01*
X130778000Y-78078000D02*
X130778000Y-77748000D01*
X124238000Y-75668000D02*
X124238000Y-75338000D01*
X124238000Y-75338000D02*
X130778000Y-75338000D01*
X130778000Y-75338000D02*
X130778000Y-75668000D01*
%TO.C,R9*%
X119094000Y-100052000D02*
X119094000Y-99722000D01*
X119094000Y-99722000D02*
X112554000Y-99722000D01*
X112554000Y-99722000D02*
X112554000Y-100052000D01*
X119094000Y-102132000D02*
X119094000Y-102462000D01*
X119094000Y-102462000D02*
X112554000Y-102462000D01*
X112554000Y-102462000D02*
X112554000Y-102132000D01*
%TO.C,R10*%
X119094000Y-97004000D02*
X119094000Y-96674000D01*
X119094000Y-96674000D02*
X112554000Y-96674000D01*
X112554000Y-96674000D02*
X112554000Y-97004000D01*
X119094000Y-99084000D02*
X119094000Y-99414000D01*
X119094000Y-99414000D02*
X112554000Y-99414000D01*
X112554000Y-99414000D02*
X112554000Y-99084000D01*
%TO.C,R11*%
X112554000Y-96366000D02*
X112554000Y-96036000D01*
X119094000Y-96366000D02*
X112554000Y-96366000D01*
X119094000Y-96036000D02*
X119094000Y-96366000D01*
X112554000Y-93626000D02*
X112554000Y-93956000D01*
X119094000Y-93626000D02*
X112554000Y-93626000D01*
X119094000Y-93956000D02*
X119094000Y-93626000D01*
%TO.C,R12*%
X119094000Y-90908000D02*
X119094000Y-90578000D01*
X119094000Y-90578000D02*
X112554000Y-90578000D01*
X112554000Y-90578000D02*
X112554000Y-90908000D01*
X119094000Y-92988000D02*
X119094000Y-93318000D01*
X119094000Y-93318000D02*
X112554000Y-93318000D01*
X112554000Y-93318000D02*
X112554000Y-92988000D01*
%TO.C,R13*%
X112554000Y-90270000D02*
X112554000Y-89940000D01*
X119094000Y-90270000D02*
X112554000Y-90270000D01*
X119094000Y-89940000D02*
X119094000Y-90270000D01*
X112554000Y-87530000D02*
X112554000Y-87860000D01*
X119094000Y-87530000D02*
X112554000Y-87530000D01*
X119094000Y-87860000D02*
X119094000Y-87530000D01*
%TO.C,R14*%
X119094000Y-81764000D02*
X119094000Y-81434000D01*
X119094000Y-81434000D02*
X112554000Y-81434000D01*
X112554000Y-81434000D02*
X112554000Y-81764000D01*
X119094000Y-83844000D02*
X119094000Y-84174000D01*
X119094000Y-84174000D02*
X112554000Y-84174000D01*
X112554000Y-84174000D02*
X112554000Y-83844000D01*
%TO.C,R15*%
X112554000Y-81126000D02*
X112554000Y-80796000D01*
X119094000Y-81126000D02*
X112554000Y-81126000D01*
X119094000Y-80796000D02*
X119094000Y-81126000D01*
X112554000Y-78386000D02*
X112554000Y-78716000D01*
X119094000Y-78386000D02*
X112554000Y-78386000D01*
X119094000Y-78716000D02*
X119094000Y-78386000D01*
%TO.C,R16*%
X112554000Y-78078000D02*
X112554000Y-77748000D01*
X119094000Y-78078000D02*
X112554000Y-78078000D01*
X119094000Y-77748000D02*
X119094000Y-78078000D01*
X112554000Y-75338000D02*
X112554000Y-75668000D01*
X119094000Y-75338000D02*
X112554000Y-75338000D01*
X119094000Y-75668000D02*
X119094000Y-75338000D01*
%TO.C,R17*%
X50509500Y-80423000D02*
X50839500Y-80423000D01*
X50509500Y-86963000D02*
X50509500Y-80423000D01*
X50839500Y-86963000D02*
X50509500Y-86963000D01*
X53249500Y-80423000D02*
X52919500Y-80423000D01*
X53249500Y-86963000D02*
X53249500Y-80423000D01*
X52919500Y-86963000D02*
X53249500Y-86963000D01*
%TO.C,R18*%
X41561000Y-80796000D02*
X41561000Y-81126000D01*
X41561000Y-81126000D02*
X48101000Y-81126000D01*
X48101000Y-81126000D02*
X48101000Y-80796000D01*
X41561000Y-78716000D02*
X41561000Y-78386000D01*
X41561000Y-78386000D02*
X48101000Y-78386000D01*
X48101000Y-78386000D02*
X48101000Y-78716000D01*
%TO.C,R19*%
X79534000Y-103402000D02*
X79534000Y-103732000D01*
X79534000Y-103732000D02*
X86074000Y-103732000D01*
X86074000Y-103732000D02*
X86074000Y-103402000D01*
X79534000Y-101322000D02*
X79534000Y-100992000D01*
X79534000Y-100992000D02*
X86074000Y-100992000D01*
X86074000Y-100992000D02*
X86074000Y-101322000D01*
%TO.C,R20*%
X79534000Y-100684000D02*
X79534000Y-100354000D01*
X86074000Y-100684000D02*
X79534000Y-100684000D01*
X86074000Y-100354000D02*
X86074000Y-100684000D01*
X79534000Y-97944000D02*
X79534000Y-98274000D01*
X86074000Y-97944000D02*
X79534000Y-97944000D01*
X86074000Y-98274000D02*
X86074000Y-97944000D01*
%TO.C,R21*%
X86074000Y-95226000D02*
X86074000Y-94896000D01*
X86074000Y-94896000D02*
X79534000Y-94896000D01*
X79534000Y-94896000D02*
X79534000Y-95226000D01*
X86074000Y-97306000D02*
X86074000Y-97636000D01*
X86074000Y-97636000D02*
X79534000Y-97636000D01*
X79534000Y-97636000D02*
X79534000Y-97306000D01*
%TO.C,R22*%
X79534000Y-94588000D02*
X79534000Y-94258000D01*
X86074000Y-94588000D02*
X79534000Y-94588000D01*
X86074000Y-94258000D02*
X86074000Y-94588000D01*
X79534000Y-91848000D02*
X79534000Y-92178000D01*
X86074000Y-91848000D02*
X79534000Y-91848000D01*
X86074000Y-92178000D02*
X86074000Y-91848000D01*
%TO.C,R23*%
X79534000Y-91540000D02*
X79534000Y-91210000D01*
X86074000Y-91540000D02*
X79534000Y-91540000D01*
X86074000Y-91210000D02*
X86074000Y-91540000D01*
X79534000Y-88800000D02*
X79534000Y-89130000D01*
X86074000Y-88800000D02*
X79534000Y-88800000D01*
X86074000Y-89130000D02*
X86074000Y-88800000D01*
%TO.C,R24*%
X86074000Y-86082000D02*
X86074000Y-85752000D01*
X86074000Y-85752000D02*
X79534000Y-85752000D01*
X79534000Y-85752000D02*
X79534000Y-86082000D01*
X86074000Y-88162000D02*
X86074000Y-88492000D01*
X86074000Y-88492000D02*
X79534000Y-88492000D01*
X79534000Y-88492000D02*
X79534000Y-88162000D01*
%TO.C,R25*%
X86074000Y-83034000D02*
X86074000Y-82704000D01*
X86074000Y-82704000D02*
X79534000Y-82704000D01*
X79534000Y-82704000D02*
X79534000Y-83034000D01*
X86074000Y-85114000D02*
X86074000Y-85444000D01*
X86074000Y-85444000D02*
X79534000Y-85444000D01*
X79534000Y-85444000D02*
X79534000Y-85114000D01*
%TO.C,R26*%
X79534000Y-82396000D02*
X79534000Y-82066000D01*
X86074000Y-82396000D02*
X79534000Y-82396000D01*
X86074000Y-82066000D02*
X86074000Y-82396000D01*
X79534000Y-79656000D02*
X79534000Y-79986000D01*
X86074000Y-79656000D02*
X79534000Y-79656000D01*
X86074000Y-79986000D02*
X86074000Y-79656000D01*
%TO.C,R27*%
X98520000Y-99468000D02*
X98520000Y-99798000D01*
X91980000Y-99468000D02*
X98520000Y-99468000D01*
X91980000Y-99798000D02*
X91980000Y-99468000D01*
X98520000Y-102208000D02*
X98520000Y-101878000D01*
X91980000Y-102208000D02*
X98520000Y-102208000D01*
X91980000Y-101878000D02*
X91980000Y-102208000D01*
%TO.C,R28*%
X98520000Y-96420000D02*
X98520000Y-96750000D01*
X91980000Y-96420000D02*
X98520000Y-96420000D01*
X91980000Y-96750000D02*
X91980000Y-96420000D01*
X98520000Y-99160000D02*
X98520000Y-98830000D01*
X91980000Y-99160000D02*
X98520000Y-99160000D01*
X91980000Y-98830000D02*
X91980000Y-99160000D01*
%TO.C,R29*%
X91980000Y-95782000D02*
X91980000Y-96112000D01*
X91980000Y-96112000D02*
X98520000Y-96112000D01*
X98520000Y-96112000D02*
X98520000Y-95782000D01*
X91980000Y-93702000D02*
X91980000Y-93372000D01*
X91980000Y-93372000D02*
X98520000Y-93372000D01*
X98520000Y-93372000D02*
X98520000Y-93702000D01*
%TO.C,R30*%
X98520000Y-90324000D02*
X98520000Y-90654000D01*
X91980000Y-90324000D02*
X98520000Y-90324000D01*
X91980000Y-90654000D02*
X91980000Y-90324000D01*
X98520000Y-93064000D02*
X98520000Y-92734000D01*
X91980000Y-93064000D02*
X98520000Y-93064000D01*
X91980000Y-92734000D02*
X91980000Y-93064000D01*
%TO.C,R31*%
X91980000Y-89686000D02*
X91980000Y-90016000D01*
X91980000Y-90016000D02*
X98520000Y-90016000D01*
X98520000Y-90016000D02*
X98520000Y-89686000D01*
X91980000Y-87606000D02*
X91980000Y-87276000D01*
X91980000Y-87276000D02*
X98520000Y-87276000D01*
X98520000Y-87276000D02*
X98520000Y-87606000D01*
%TO.C,R32*%
X98520000Y-81434000D02*
X98520000Y-81764000D01*
X91980000Y-81434000D02*
X98520000Y-81434000D01*
X91980000Y-81764000D02*
X91980000Y-81434000D01*
X98520000Y-84174000D02*
X98520000Y-83844000D01*
X91980000Y-84174000D02*
X98520000Y-84174000D01*
X91980000Y-83844000D02*
X91980000Y-84174000D01*
%TO.C,R33*%
X91980000Y-80796000D02*
X91980000Y-81126000D01*
X91980000Y-81126000D02*
X98520000Y-81126000D01*
X98520000Y-81126000D02*
X98520000Y-80796000D01*
X91980000Y-78716000D02*
X91980000Y-78386000D01*
X91980000Y-78386000D02*
X98520000Y-78386000D01*
X98520000Y-78386000D02*
X98520000Y-78716000D01*
%TO.C,R34*%
X98520000Y-75338000D02*
X98520000Y-75668000D01*
X91980000Y-75338000D02*
X98520000Y-75338000D01*
X91980000Y-75668000D02*
X91980000Y-75338000D01*
X98520000Y-78078000D02*
X98520000Y-77748000D01*
X91980000Y-78078000D02*
X98520000Y-78078000D01*
X91980000Y-77748000D02*
X91980000Y-78078000D01*
%TO.C,R35*%
X53562000Y-69242000D02*
X53562000Y-69572000D01*
X47022000Y-69242000D02*
X53562000Y-69242000D01*
X47022000Y-69572000D02*
X47022000Y-69242000D01*
X53562000Y-71982000D02*
X53562000Y-71652000D01*
X47022000Y-71982000D02*
X53562000Y-71982000D01*
X47022000Y-71652000D02*
X47022000Y-71982000D01*
%TO.C,R36*%
X56539000Y-86963000D02*
X56869000Y-86963000D01*
X56869000Y-86963000D02*
X56869000Y-80423000D01*
X56869000Y-80423000D02*
X56539000Y-80423000D01*
X54459000Y-86963000D02*
X54129000Y-86963000D01*
X54129000Y-86963000D02*
X54129000Y-80423000D01*
X54129000Y-80423000D02*
X54459000Y-80423000D01*
%TO.C,R37*%
X124238000Y-75030000D02*
X124238000Y-74700000D01*
X130778000Y-75030000D02*
X124238000Y-75030000D01*
X130778000Y-74700000D02*
X130778000Y-75030000D01*
X124238000Y-72290000D02*
X124238000Y-72620000D01*
X130778000Y-72290000D02*
X124238000Y-72290000D01*
X130778000Y-72620000D02*
X130778000Y-72290000D01*
%TO.C,R38*%
X124238000Y-71652000D02*
X124238000Y-71982000D01*
X124238000Y-71982000D02*
X130778000Y-71982000D01*
X130778000Y-71982000D02*
X130778000Y-71652000D01*
X124238000Y-69572000D02*
X124238000Y-69242000D01*
X124238000Y-69242000D02*
X130778000Y-69242000D01*
X130778000Y-69242000D02*
X130778000Y-69572000D01*
%TO.C,R39*%
X124238000Y-68604000D02*
X124238000Y-68934000D01*
X124238000Y-68934000D02*
X130778000Y-68934000D01*
X130778000Y-68934000D02*
X130778000Y-68604000D01*
X124238000Y-66524000D02*
X124238000Y-66194000D01*
X124238000Y-66194000D02*
X130778000Y-66194000D01*
X130778000Y-66194000D02*
X130778000Y-66524000D01*
%TO.C,R40*%
X130778000Y-63146000D02*
X130778000Y-63476000D01*
X124238000Y-63146000D02*
X130778000Y-63146000D01*
X124238000Y-63476000D02*
X124238000Y-63146000D01*
X130778000Y-65886000D02*
X130778000Y-65556000D01*
X124238000Y-65886000D02*
X130778000Y-65886000D01*
X124238000Y-65556000D02*
X124238000Y-65886000D01*
%TO.C,R41*%
X124238000Y-62508000D02*
X124238000Y-62838000D01*
X124238000Y-62838000D02*
X130778000Y-62838000D01*
X130778000Y-62838000D02*
X130778000Y-62508000D01*
X124238000Y-60428000D02*
X124238000Y-60098000D01*
X124238000Y-60098000D02*
X130778000Y-60098000D01*
X130778000Y-60098000D02*
X130778000Y-60428000D01*
%TO.C,R42*%
X130778000Y-57050000D02*
X130778000Y-57380000D01*
X124238000Y-57050000D02*
X130778000Y-57050000D01*
X124238000Y-57380000D02*
X124238000Y-57050000D01*
X130778000Y-59790000D02*
X130778000Y-59460000D01*
X124238000Y-59790000D02*
X130778000Y-59790000D01*
X124238000Y-59460000D02*
X124238000Y-59790000D01*
%TO.C,R43*%
X124238000Y-56412000D02*
X124238000Y-56742000D01*
X124238000Y-56742000D02*
X130778000Y-56742000D01*
X130778000Y-56742000D02*
X130778000Y-56412000D01*
X124238000Y-54332000D02*
X124238000Y-54002000D01*
X124238000Y-54002000D02*
X130778000Y-54002000D01*
X130778000Y-54002000D02*
X130778000Y-54332000D01*
%TO.C,R44*%
X130778000Y-50954000D02*
X130778000Y-51284000D01*
X124238000Y-50954000D02*
X130778000Y-50954000D01*
X124238000Y-51284000D02*
X124238000Y-50954000D01*
X130778000Y-53694000D02*
X130778000Y-53364000D01*
X124238000Y-53694000D02*
X130778000Y-53694000D01*
X124238000Y-53364000D02*
X124238000Y-53694000D01*
%TO.C,R45*%
X119094000Y-72620000D02*
X119094000Y-72290000D01*
X119094000Y-72290000D02*
X112554000Y-72290000D01*
X112554000Y-72290000D02*
X112554000Y-72620000D01*
X119094000Y-74700000D02*
X119094000Y-75030000D01*
X119094000Y-75030000D02*
X112554000Y-75030000D01*
X112554000Y-75030000D02*
X112554000Y-74700000D01*
%TO.C,R46*%
X119094000Y-69572000D02*
X119094000Y-69242000D01*
X119094000Y-69242000D02*
X112554000Y-69242000D01*
X112554000Y-69242000D02*
X112554000Y-69572000D01*
X119094000Y-71652000D02*
X119094000Y-71982000D01*
X119094000Y-71982000D02*
X112554000Y-71982000D01*
X112554000Y-71982000D02*
X112554000Y-71652000D01*
%TO.C,R47*%
X119094000Y-66524000D02*
X119094000Y-66194000D01*
X119094000Y-66194000D02*
X112554000Y-66194000D01*
X112554000Y-66194000D02*
X112554000Y-66524000D01*
X119094000Y-68604000D02*
X119094000Y-68934000D01*
X119094000Y-68934000D02*
X112554000Y-68934000D01*
X112554000Y-68934000D02*
X112554000Y-68604000D01*
%TO.C,R48*%
X112554000Y-65886000D02*
X112554000Y-65556000D01*
X119094000Y-65886000D02*
X112554000Y-65886000D01*
X119094000Y-65556000D02*
X119094000Y-65886000D01*
X112554000Y-63146000D02*
X112554000Y-63476000D01*
X119094000Y-63146000D02*
X112554000Y-63146000D01*
X119094000Y-63476000D02*
X119094000Y-63146000D01*
%TO.C,R49*%
X119094000Y-60428000D02*
X119094000Y-60098000D01*
X119094000Y-60098000D02*
X112554000Y-60098000D01*
X112554000Y-60098000D02*
X112554000Y-60428000D01*
X119094000Y-62508000D02*
X119094000Y-62838000D01*
X119094000Y-62838000D02*
X112554000Y-62838000D01*
X112554000Y-62838000D02*
X112554000Y-62508000D01*
%TO.C,R50*%
X112554000Y-59790000D02*
X112554000Y-59460000D01*
X119094000Y-59790000D02*
X112554000Y-59790000D01*
X119094000Y-59460000D02*
X119094000Y-59790000D01*
X112554000Y-57050000D02*
X112554000Y-57380000D01*
X119094000Y-57050000D02*
X112554000Y-57050000D01*
X119094000Y-57380000D02*
X119094000Y-57050000D01*
%TO.C,R51*%
X119094000Y-54332000D02*
X119094000Y-54002000D01*
X119094000Y-54002000D02*
X112554000Y-54002000D01*
X112554000Y-54002000D02*
X112554000Y-54332000D01*
X119094000Y-56412000D02*
X119094000Y-56742000D01*
X119094000Y-56742000D02*
X112554000Y-56742000D01*
X112554000Y-56742000D02*
X112554000Y-56412000D01*
%TO.C,R52*%
X112554000Y-53694000D02*
X112554000Y-53364000D01*
X119094000Y-53694000D02*
X112554000Y-53694000D01*
X119094000Y-53364000D02*
X119094000Y-53694000D01*
X112554000Y-50954000D02*
X112554000Y-51284000D01*
X119094000Y-50954000D02*
X112554000Y-50954000D01*
X119094000Y-51284000D02*
X119094000Y-50954000D01*
%TO.C,R53*%
X71982000Y-70072000D02*
X71652000Y-70072000D01*
X71982000Y-63532000D02*
X71982000Y-70072000D01*
X71652000Y-63532000D02*
X71982000Y-63532000D01*
X69242000Y-70072000D02*
X69572000Y-70072000D01*
X69242000Y-63532000D02*
X69242000Y-70072000D01*
X69572000Y-63532000D02*
X69242000Y-63532000D01*
%TO.C,R54*%
X59341000Y-57047000D02*
X59341000Y-57377000D01*
X59341000Y-57377000D02*
X65881000Y-57377000D01*
X65881000Y-57377000D02*
X65881000Y-57047000D01*
X59341000Y-54967000D02*
X59341000Y-54637000D01*
X59341000Y-54637000D02*
X65881000Y-54637000D01*
X65881000Y-54637000D02*
X65881000Y-54967000D01*
%TO.C,R55*%
X86074000Y-72290000D02*
X86074000Y-72620000D01*
X79534000Y-72290000D02*
X86074000Y-72290000D01*
X79534000Y-72620000D02*
X79534000Y-72290000D01*
X86074000Y-75030000D02*
X86074000Y-74700000D01*
X79534000Y-75030000D02*
X86074000Y-75030000D01*
X79534000Y-74700000D02*
X79534000Y-75030000D01*
%TO.C,R56*%
X85820000Y-69572000D02*
X85820000Y-69242000D01*
X85820000Y-69242000D02*
X79280000Y-69242000D01*
X79280000Y-69242000D02*
X79280000Y-69572000D01*
X85820000Y-71652000D02*
X85820000Y-71982000D01*
X85820000Y-71982000D02*
X79280000Y-71982000D01*
X79280000Y-71982000D02*
X79280000Y-71652000D01*
%TO.C,R57*%
X79280000Y-68934000D02*
X79280000Y-68604000D01*
X85820000Y-68934000D02*
X79280000Y-68934000D01*
X85820000Y-68604000D02*
X85820000Y-68934000D01*
X79280000Y-66194000D02*
X79280000Y-66524000D01*
X85820000Y-66194000D02*
X79280000Y-66194000D01*
X85820000Y-66524000D02*
X85820000Y-66194000D01*
%TO.C,R58*%
X85820000Y-63476000D02*
X85820000Y-63146000D01*
X85820000Y-63146000D02*
X79280000Y-63146000D01*
X79280000Y-63146000D02*
X79280000Y-63476000D01*
X85820000Y-65556000D02*
X85820000Y-65886000D01*
X85820000Y-65886000D02*
X79280000Y-65886000D01*
X79280000Y-65886000D02*
X79280000Y-65556000D01*
%TO.C,R59*%
X79280000Y-62838000D02*
X79280000Y-62508000D01*
X85820000Y-62838000D02*
X79280000Y-62838000D01*
X85820000Y-62508000D02*
X85820000Y-62838000D01*
X79280000Y-60098000D02*
X79280000Y-60428000D01*
X85820000Y-60098000D02*
X79280000Y-60098000D01*
X85820000Y-60428000D02*
X85820000Y-60098000D01*
%TO.C,R60*%
X85820000Y-57380000D02*
X85820000Y-57050000D01*
X85820000Y-57050000D02*
X79280000Y-57050000D01*
X79280000Y-57050000D02*
X79280000Y-57380000D01*
X85820000Y-59460000D02*
X85820000Y-59790000D01*
X85820000Y-59790000D02*
X79280000Y-59790000D01*
X79280000Y-59790000D02*
X79280000Y-59460000D01*
%TO.C,R61*%
X79280000Y-56742000D02*
X79280000Y-56412000D01*
X85820000Y-56742000D02*
X79280000Y-56742000D01*
X85820000Y-56412000D02*
X85820000Y-56742000D01*
X79280000Y-54002000D02*
X79280000Y-54332000D01*
X85820000Y-54002000D02*
X79280000Y-54002000D01*
X85820000Y-54332000D02*
X85820000Y-54002000D01*
%TO.C,R62*%
X79280000Y-53694000D02*
X79280000Y-53364000D01*
X85820000Y-53694000D02*
X79280000Y-53694000D01*
X85820000Y-53364000D02*
X85820000Y-53694000D01*
X79280000Y-50954000D02*
X79280000Y-51284000D01*
X85820000Y-50954000D02*
X79280000Y-50954000D01*
X85820000Y-51284000D02*
X85820000Y-50954000D01*
%TO.C,R63*%
X91980000Y-74700000D02*
X91980000Y-75030000D01*
X91980000Y-75030000D02*
X98520000Y-75030000D01*
X98520000Y-75030000D02*
X98520000Y-74700000D01*
X91980000Y-72620000D02*
X91980000Y-72290000D01*
X91980000Y-72290000D02*
X98520000Y-72290000D01*
X98520000Y-72290000D02*
X98520000Y-72620000D01*
%TO.C,R64*%
X98520000Y-69242000D02*
X98520000Y-69572000D01*
X91980000Y-69242000D02*
X98520000Y-69242000D01*
X91980000Y-69572000D02*
X91980000Y-69242000D01*
X98520000Y-71982000D02*
X98520000Y-71652000D01*
X91980000Y-71982000D02*
X98520000Y-71982000D01*
X91980000Y-71652000D02*
X91980000Y-71982000D01*
%TO.C,R65*%
X91980000Y-68604000D02*
X91980000Y-68934000D01*
X91980000Y-68934000D02*
X98520000Y-68934000D01*
X98520000Y-68934000D02*
X98520000Y-68604000D01*
X91980000Y-66524000D02*
X91980000Y-66194000D01*
X91980000Y-66194000D02*
X98520000Y-66194000D01*
X98520000Y-66194000D02*
X98520000Y-66524000D01*
%TO.C,R66*%
X98520000Y-63146000D02*
X98520000Y-63476000D01*
X91980000Y-63146000D02*
X98520000Y-63146000D01*
X91980000Y-63476000D02*
X91980000Y-63146000D01*
X98520000Y-65886000D02*
X98520000Y-65556000D01*
X91980000Y-65886000D02*
X98520000Y-65886000D01*
X91980000Y-65556000D02*
X91980000Y-65886000D01*
%TO.C,R67*%
X91980000Y-62508000D02*
X91980000Y-62838000D01*
X91980000Y-62838000D02*
X98520000Y-62838000D01*
X98520000Y-62838000D02*
X98520000Y-62508000D01*
X91980000Y-60428000D02*
X91980000Y-60098000D01*
X91980000Y-60098000D02*
X98520000Y-60098000D01*
X98520000Y-60098000D02*
X98520000Y-60428000D01*
%TO.C,R68*%
X91980000Y-59460000D02*
X91980000Y-59790000D01*
X91980000Y-59790000D02*
X98520000Y-59790000D01*
X98520000Y-59790000D02*
X98520000Y-59460000D01*
X91980000Y-57380000D02*
X91980000Y-57050000D01*
X91980000Y-57050000D02*
X98520000Y-57050000D01*
X98520000Y-57050000D02*
X98520000Y-57380000D01*
%TO.C,R69*%
X98520000Y-54002000D02*
X98520000Y-54332000D01*
X91980000Y-54002000D02*
X98520000Y-54002000D01*
X91980000Y-54332000D02*
X91980000Y-54002000D01*
X98520000Y-56742000D02*
X98520000Y-56412000D01*
X91980000Y-56742000D02*
X98520000Y-56742000D01*
X91980000Y-56412000D02*
X91980000Y-56742000D01*
%TO.C,R70*%
X91980000Y-53364000D02*
X91980000Y-53694000D01*
X91980000Y-53694000D02*
X98520000Y-53694000D01*
X98520000Y-53694000D02*
X98520000Y-53364000D01*
X91980000Y-51284000D02*
X91980000Y-50954000D01*
X91980000Y-50954000D02*
X98520000Y-50954000D01*
X98520000Y-50954000D02*
X98520000Y-51284000D01*
%TO.C,R71*%
X69242000Y-79280000D02*
X69572000Y-79280000D01*
X69242000Y-85820000D02*
X69242000Y-79280000D01*
X69572000Y-85820000D02*
X69242000Y-85820000D01*
X71982000Y-79280000D02*
X71652000Y-79280000D01*
X71982000Y-85820000D02*
X71982000Y-79280000D01*
X71652000Y-85820000D02*
X71982000Y-85820000D01*
%TO.C,R72*%
X75208000Y-92678000D02*
X75538000Y-92678000D01*
X75538000Y-92678000D02*
X75538000Y-86138000D01*
X75538000Y-86138000D02*
X75208000Y-86138000D01*
X73128000Y-92678000D02*
X72798000Y-92678000D01*
X72798000Y-92678000D02*
X72798000Y-86138000D01*
X72798000Y-86138000D02*
X73128000Y-86138000D01*
%TO.C,U1*%
X61484000Y-84642000D02*
X59834000Y-84642000D01*
X59834000Y-84642000D02*
X59834000Y-66742000D01*
X59834000Y-66742000D02*
X65134000Y-66742000D01*
X65134000Y-66742000D02*
X65134000Y-84642000D01*
X65134000Y-84642000D02*
X63484000Y-84642000D01*
X63484000Y-84642000D02*
G75*
G03*
X61484000Y-84642000I-1000000J0D01*
G01*
%TO.C,J2*%
X106680000Y-98358000D02*
X108010000Y-98358000D01*
X108010000Y-98358000D02*
X108010000Y-97028000D01*
X105410000Y-98358000D02*
X105410000Y-95758000D01*
X105410000Y-95758000D02*
X108010000Y-95758000D01*
X108010000Y-95758000D02*
X108010000Y-47438000D01*
X102810000Y-47438000D02*
X108010000Y-47438000D01*
X102810000Y-98358000D02*
X102810000Y-47438000D01*
X102810000Y-98358000D02*
X105410000Y-98358000D01*
%TO.C,J1*%
D11*
X51820380Y-75231666D02*
X52534666Y-75231666D01*
X52677523Y-75184047D01*
X52772761Y-75088809D01*
X52820380Y-74945952D01*
X52820380Y-74850714D01*
X52820380Y-76231666D02*
X52820380Y-75660238D01*
X52820380Y-75945952D02*
X51820380Y-75945952D01*
X51963238Y-75850714D01*
X52058476Y-75755476D01*
X52106095Y-75660238D01*
%TO.C,J3*%
X54689333Y-71036380D02*
X54689333Y-71750666D01*
X54736952Y-71893523D01*
X54832190Y-71988761D01*
X54975047Y-72036380D01*
X55070285Y-72036380D01*
X54308380Y-71036380D02*
X53689333Y-71036380D01*
X54022666Y-71417333D01*
X53879809Y-71417333D01*
X53784571Y-71464952D01*
X53736952Y-71512571D01*
X53689333Y-71607809D01*
X53689333Y-71845904D01*
X53736952Y-71941142D01*
X53784571Y-71988761D01*
X53879809Y-72036380D01*
X54165523Y-72036380D01*
X54260761Y-71988761D01*
X54308380Y-71941142D01*
%TO.C,J4*%
X70818333Y-60456380D02*
X70818333Y-61170666D01*
X70865952Y-61313523D01*
X70961190Y-61408761D01*
X71104047Y-61456380D01*
X71199285Y-61456380D01*
X69913571Y-60789714D02*
X69913571Y-61456380D01*
X70151666Y-60408761D02*
X70389761Y-61123047D01*
X69770714Y-61123047D01*
%TO.C,J5*%
X74374333Y-76624380D02*
X74374333Y-77338666D01*
X74421952Y-77481523D01*
X74517190Y-77576761D01*
X74660047Y-77624380D01*
X74755285Y-77624380D01*
X73421952Y-76624380D02*
X73898142Y-76624380D01*
X73945761Y-77100571D01*
X73898142Y-77052952D01*
X73802904Y-77005333D01*
X73564809Y-77005333D01*
X73469571Y-77052952D01*
X73421952Y-77100571D01*
X73374333Y-77195809D01*
X73374333Y-77433904D01*
X73421952Y-77529142D01*
X73469571Y-77576761D01*
X73564809Y-77624380D01*
X73802904Y-77624380D01*
X73898142Y-77576761D01*
X73945761Y-77529142D01*
%TO.C,J6*%
X40719333Y-94365380D02*
X40719333Y-95079666D01*
X40766952Y-95222523D01*
X40862190Y-95317761D01*
X41005047Y-95365380D01*
X41100285Y-95365380D01*
X39814571Y-94365380D02*
X40005047Y-94365380D01*
X40100285Y-94413000D01*
X40147904Y-94460619D01*
X40243142Y-94603476D01*
X40290761Y-94793952D01*
X40290761Y-95174904D01*
X40243142Y-95270142D01*
X40195523Y-95317761D01*
X40100285Y-95365380D01*
X39909809Y-95365380D01*
X39814571Y-95317761D01*
X39766952Y-95270142D01*
X39719333Y-95174904D01*
X39719333Y-94936809D01*
X39766952Y-94841571D01*
X39814571Y-94793952D01*
X39909809Y-94746333D01*
X40100285Y-94746333D01*
X40195523Y-94793952D01*
X40243142Y-94841571D01*
X40290761Y-94936809D01*
%TO.C,J7*%
X40973333Y-77220380D02*
X40973333Y-77934666D01*
X41020952Y-78077523D01*
X41116190Y-78172761D01*
X41259047Y-78220380D01*
X41354285Y-78220380D01*
X40592380Y-77220380D02*
X39925714Y-77220380D01*
X40354285Y-78220380D01*
%TO.C,R1*%
X127674666Y-96126380D02*
X128008000Y-95650190D01*
X128246095Y-96126380D02*
X128246095Y-95126380D01*
X127865142Y-95126380D01*
X127769904Y-95174000D01*
X127722285Y-95221619D01*
X127674666Y-95316857D01*
X127674666Y-95459714D01*
X127722285Y-95554952D01*
X127769904Y-95602571D01*
X127865142Y-95650190D01*
X128246095Y-95650190D01*
X126722285Y-96126380D02*
X127293714Y-96126380D01*
X127008000Y-96126380D02*
X127008000Y-95126380D01*
X127103238Y-95269238D01*
X127198476Y-95364476D01*
X127293714Y-95412095D01*
%TO.C,R2*%
X127674666Y-97818380D02*
X128008000Y-97342190D01*
X128246095Y-97818380D02*
X128246095Y-96818380D01*
X127865142Y-96818380D01*
X127769904Y-96866000D01*
X127722285Y-96913619D01*
X127674666Y-97008857D01*
X127674666Y-97151714D01*
X127722285Y-97246952D01*
X127769904Y-97294571D01*
X127865142Y-97342190D01*
X128246095Y-97342190D01*
X127293714Y-96913619D02*
X127246095Y-96866000D01*
X127150857Y-96818380D01*
X126912761Y-96818380D01*
X126817523Y-96866000D01*
X126769904Y-96913619D01*
X126722285Y-97008857D01*
X126722285Y-97104095D01*
X126769904Y-97246952D01*
X127341333Y-97818380D01*
X126722285Y-97818380D01*
%TO.C,R3*%
X127674666Y-94770380D02*
X128008000Y-94294190D01*
X128246095Y-94770380D02*
X128246095Y-93770380D01*
X127865142Y-93770380D01*
X127769904Y-93818000D01*
X127722285Y-93865619D01*
X127674666Y-93960857D01*
X127674666Y-94103714D01*
X127722285Y-94198952D01*
X127769904Y-94246571D01*
X127865142Y-94294190D01*
X128246095Y-94294190D01*
X127341333Y-93770380D02*
X126722285Y-93770380D01*
X127055619Y-94151333D01*
X126912761Y-94151333D01*
X126817523Y-94198952D01*
X126769904Y-94246571D01*
X126722285Y-94341809D01*
X126722285Y-94579904D01*
X126769904Y-94675142D01*
X126817523Y-94722761D01*
X126912761Y-94770380D01*
X127198476Y-94770380D01*
X127293714Y-94722761D01*
X127341333Y-94675142D01*
%TO.C,R4*%
X127674666Y-91722380D02*
X128008000Y-91246190D01*
X128246095Y-91722380D02*
X128246095Y-90722380D01*
X127865142Y-90722380D01*
X127769904Y-90770000D01*
X127722285Y-90817619D01*
X127674666Y-90912857D01*
X127674666Y-91055714D01*
X127722285Y-91150952D01*
X127769904Y-91198571D01*
X127865142Y-91246190D01*
X128246095Y-91246190D01*
X126817523Y-91055714D02*
X126817523Y-91722380D01*
X127055619Y-90674761D02*
X127293714Y-91389047D01*
X126674666Y-91389047D01*
%TO.C,R5*%
X127674666Y-88674380D02*
X128008000Y-88198190D01*
X128246095Y-88674380D02*
X128246095Y-87674380D01*
X127865142Y-87674380D01*
X127769904Y-87722000D01*
X127722285Y-87769619D01*
X127674666Y-87864857D01*
X127674666Y-88007714D01*
X127722285Y-88102952D01*
X127769904Y-88150571D01*
X127865142Y-88198190D01*
X128246095Y-88198190D01*
X126769904Y-87674380D02*
X127246095Y-87674380D01*
X127293714Y-88150571D01*
X127246095Y-88102952D01*
X127150857Y-88055333D01*
X126912761Y-88055333D01*
X126817523Y-88102952D01*
X126769904Y-88150571D01*
X126722285Y-88245809D01*
X126722285Y-88483904D01*
X126769904Y-88579142D01*
X126817523Y-88626761D01*
X126912761Y-88674380D01*
X127150857Y-88674380D01*
X127246095Y-88626761D01*
X127293714Y-88579142D01*
%TO.C,R6*%
X127674666Y-85626380D02*
X128008000Y-85150190D01*
X128246095Y-85626380D02*
X128246095Y-84626380D01*
X127865142Y-84626380D01*
X127769904Y-84674000D01*
X127722285Y-84721619D01*
X127674666Y-84816857D01*
X127674666Y-84959714D01*
X127722285Y-85054952D01*
X127769904Y-85102571D01*
X127865142Y-85150190D01*
X128246095Y-85150190D01*
X126817523Y-84626380D02*
X127008000Y-84626380D01*
X127103238Y-84674000D01*
X127150857Y-84721619D01*
X127246095Y-84864476D01*
X127293714Y-85054952D01*
X127293714Y-85435904D01*
X127246095Y-85531142D01*
X127198476Y-85578761D01*
X127103238Y-85626380D01*
X126912761Y-85626380D01*
X126817523Y-85578761D01*
X126769904Y-85531142D01*
X126722285Y-85435904D01*
X126722285Y-85197809D01*
X126769904Y-85102571D01*
X126817523Y-85054952D01*
X126912761Y-85007333D01*
X127103238Y-85007333D01*
X127198476Y-85054952D01*
X127246095Y-85102571D01*
X127293714Y-85197809D01*
%TO.C,R7*%
X127674666Y-82578380D02*
X128008000Y-82102190D01*
X128246095Y-82578380D02*
X128246095Y-81578380D01*
X127865142Y-81578380D01*
X127769904Y-81626000D01*
X127722285Y-81673619D01*
X127674666Y-81768857D01*
X127674666Y-81911714D01*
X127722285Y-82006952D01*
X127769904Y-82054571D01*
X127865142Y-82102190D01*
X128246095Y-82102190D01*
X127341333Y-81578380D02*
X126674666Y-81578380D01*
X127103238Y-82578380D01*
%TO.C,R8*%
X127674666Y-79530380D02*
X128008000Y-79054190D01*
X128246095Y-79530380D02*
X128246095Y-78530380D01*
X127865142Y-78530380D01*
X127769904Y-78578000D01*
X127722285Y-78625619D01*
X127674666Y-78720857D01*
X127674666Y-78863714D01*
X127722285Y-78958952D01*
X127769904Y-79006571D01*
X127865142Y-79054190D01*
X128246095Y-79054190D01*
X127103238Y-78958952D02*
X127198476Y-78911333D01*
X127246095Y-78863714D01*
X127293714Y-78768476D01*
X127293714Y-78720857D01*
X127246095Y-78625619D01*
X127198476Y-78578000D01*
X127103238Y-78530380D01*
X126912761Y-78530380D01*
X126817523Y-78578000D01*
X126769904Y-78625619D01*
X126722285Y-78720857D01*
X126722285Y-78768476D01*
X126769904Y-78863714D01*
X126817523Y-78911333D01*
X126912761Y-78958952D01*
X127103238Y-78958952D01*
X127198476Y-79006571D01*
X127246095Y-79054190D01*
X127293714Y-79149428D01*
X127293714Y-79339904D01*
X127246095Y-79435142D01*
X127198476Y-79482761D01*
X127103238Y-79530380D01*
X126912761Y-79530380D01*
X126817523Y-79482761D01*
X126769904Y-79435142D01*
X126722285Y-79339904D01*
X126722285Y-79149428D01*
X126769904Y-79054190D01*
X126817523Y-79006571D01*
X126912761Y-78958952D01*
%TO.C,R9*%
X115990666Y-99174380D02*
X116324000Y-98698190D01*
X116562095Y-99174380D02*
X116562095Y-98174380D01*
X116181142Y-98174380D01*
X116085904Y-98222000D01*
X116038285Y-98269619D01*
X115990666Y-98364857D01*
X115990666Y-98507714D01*
X116038285Y-98602952D01*
X116085904Y-98650571D01*
X116181142Y-98698190D01*
X116562095Y-98698190D01*
X115514476Y-99174380D02*
X115324000Y-99174380D01*
X115228761Y-99126761D01*
X115181142Y-99079142D01*
X115085904Y-98936285D01*
X115038285Y-98745809D01*
X115038285Y-98364857D01*
X115085904Y-98269619D01*
X115133523Y-98222000D01*
X115228761Y-98174380D01*
X115419238Y-98174380D01*
X115514476Y-98222000D01*
X115562095Y-98269619D01*
X115609714Y-98364857D01*
X115609714Y-98602952D01*
X115562095Y-98698190D01*
X115514476Y-98745809D01*
X115419238Y-98793428D01*
X115228761Y-98793428D01*
X115133523Y-98745809D01*
X115085904Y-98698190D01*
X115038285Y-98602952D01*
%TO.C,R10*%
X116466857Y-96126380D02*
X116800190Y-95650190D01*
X117038285Y-96126380D02*
X117038285Y-95126380D01*
X116657333Y-95126380D01*
X116562095Y-95174000D01*
X116514476Y-95221619D01*
X116466857Y-95316857D01*
X116466857Y-95459714D01*
X116514476Y-95554952D01*
X116562095Y-95602571D01*
X116657333Y-95650190D01*
X117038285Y-95650190D01*
X115514476Y-96126380D02*
X116085904Y-96126380D01*
X115800190Y-96126380D02*
X115800190Y-95126380D01*
X115895428Y-95269238D01*
X115990666Y-95364476D01*
X116085904Y-95412095D01*
X114895428Y-95126380D02*
X114800190Y-95126380D01*
X114704952Y-95174000D01*
X114657333Y-95221619D01*
X114609714Y-95316857D01*
X114562095Y-95507333D01*
X114562095Y-95745428D01*
X114609714Y-95935904D01*
X114657333Y-96031142D01*
X114704952Y-96078761D01*
X114800190Y-96126380D01*
X114895428Y-96126380D01*
X114990666Y-96078761D01*
X115038285Y-96031142D01*
X115085904Y-95935904D01*
X115133523Y-95745428D01*
X115133523Y-95507333D01*
X115085904Y-95316857D01*
X115038285Y-95221619D01*
X114990666Y-95174000D01*
X114895428Y-95126380D01*
%TO.C,R11*%
X116466857Y-93078380D02*
X116800190Y-92602190D01*
X117038285Y-93078380D02*
X117038285Y-92078380D01*
X116657333Y-92078380D01*
X116562095Y-92126000D01*
X116514476Y-92173619D01*
X116466857Y-92268857D01*
X116466857Y-92411714D01*
X116514476Y-92506952D01*
X116562095Y-92554571D01*
X116657333Y-92602190D01*
X117038285Y-92602190D01*
X115514476Y-93078380D02*
X116085904Y-93078380D01*
X115800190Y-93078380D02*
X115800190Y-92078380D01*
X115895428Y-92221238D01*
X115990666Y-92316476D01*
X116085904Y-92364095D01*
X114562095Y-93078380D02*
X115133523Y-93078380D01*
X114847809Y-93078380D02*
X114847809Y-92078380D01*
X114943047Y-92221238D01*
X115038285Y-92316476D01*
X115133523Y-92364095D01*
%TO.C,R12*%
X116466857Y-90030380D02*
X116800190Y-89554190D01*
X117038285Y-90030380D02*
X117038285Y-89030380D01*
X116657333Y-89030380D01*
X116562095Y-89078000D01*
X116514476Y-89125619D01*
X116466857Y-89220857D01*
X116466857Y-89363714D01*
X116514476Y-89458952D01*
X116562095Y-89506571D01*
X116657333Y-89554190D01*
X117038285Y-89554190D01*
X115514476Y-90030380D02*
X116085904Y-90030380D01*
X115800190Y-90030380D02*
X115800190Y-89030380D01*
X115895428Y-89173238D01*
X115990666Y-89268476D01*
X116085904Y-89316095D01*
X115133523Y-89125619D02*
X115085904Y-89078000D01*
X114990666Y-89030380D01*
X114752571Y-89030380D01*
X114657333Y-89078000D01*
X114609714Y-89125619D01*
X114562095Y-89220857D01*
X114562095Y-89316095D01*
X114609714Y-89458952D01*
X115181142Y-90030380D01*
X114562095Y-90030380D01*
%TO.C,R13*%
X116466857Y-86982380D02*
X116800190Y-86506190D01*
X117038285Y-86982380D02*
X117038285Y-85982380D01*
X116657333Y-85982380D01*
X116562095Y-86030000D01*
X116514476Y-86077619D01*
X116466857Y-86172857D01*
X116466857Y-86315714D01*
X116514476Y-86410952D01*
X116562095Y-86458571D01*
X116657333Y-86506190D01*
X117038285Y-86506190D01*
X115514476Y-86982380D02*
X116085904Y-86982380D01*
X115800190Y-86982380D02*
X115800190Y-85982380D01*
X115895428Y-86125238D01*
X115990666Y-86220476D01*
X116085904Y-86268095D01*
X115181142Y-85982380D02*
X114562095Y-85982380D01*
X114895428Y-86363333D01*
X114752571Y-86363333D01*
X114657333Y-86410952D01*
X114609714Y-86458571D01*
X114562095Y-86553809D01*
X114562095Y-86791904D01*
X114609714Y-86887142D01*
X114657333Y-86934761D01*
X114752571Y-86982380D01*
X115038285Y-86982380D01*
X115133523Y-86934761D01*
X115181142Y-86887142D01*
%TO.C,R14*%
X116466857Y-80886380D02*
X116800190Y-80410190D01*
X117038285Y-80886380D02*
X117038285Y-79886380D01*
X116657333Y-79886380D01*
X116562095Y-79934000D01*
X116514476Y-79981619D01*
X116466857Y-80076857D01*
X116466857Y-80219714D01*
X116514476Y-80314952D01*
X116562095Y-80362571D01*
X116657333Y-80410190D01*
X117038285Y-80410190D01*
X115514476Y-80886380D02*
X116085904Y-80886380D01*
X115800190Y-80886380D02*
X115800190Y-79886380D01*
X115895428Y-80029238D01*
X115990666Y-80124476D01*
X116085904Y-80172095D01*
X114657333Y-80219714D02*
X114657333Y-80886380D01*
X114895428Y-79838761D02*
X115133523Y-80553047D01*
X114514476Y-80553047D01*
%TO.C,R15*%
X116466857Y-77838380D02*
X116800190Y-77362190D01*
X117038285Y-77838380D02*
X117038285Y-76838380D01*
X116657333Y-76838380D01*
X116562095Y-76886000D01*
X116514476Y-76933619D01*
X116466857Y-77028857D01*
X116466857Y-77171714D01*
X116514476Y-77266952D01*
X116562095Y-77314571D01*
X116657333Y-77362190D01*
X117038285Y-77362190D01*
X115514476Y-77838380D02*
X116085904Y-77838380D01*
X115800190Y-77838380D02*
X115800190Y-76838380D01*
X115895428Y-76981238D01*
X115990666Y-77076476D01*
X116085904Y-77124095D01*
X114609714Y-76838380D02*
X115085904Y-76838380D01*
X115133523Y-77314571D01*
X115085904Y-77266952D01*
X114990666Y-77219333D01*
X114752571Y-77219333D01*
X114657333Y-77266952D01*
X114609714Y-77314571D01*
X114562095Y-77409809D01*
X114562095Y-77647904D01*
X114609714Y-77743142D01*
X114657333Y-77790761D01*
X114752571Y-77838380D01*
X114990666Y-77838380D01*
X115085904Y-77790761D01*
X115133523Y-77743142D01*
%TO.C,R16*%
X116466857Y-74790380D02*
X116800190Y-74314190D01*
X117038285Y-74790380D02*
X117038285Y-73790380D01*
X116657333Y-73790380D01*
X116562095Y-73838000D01*
X116514476Y-73885619D01*
X116466857Y-73980857D01*
X116466857Y-74123714D01*
X116514476Y-74218952D01*
X116562095Y-74266571D01*
X116657333Y-74314190D01*
X117038285Y-74314190D01*
X115514476Y-74790380D02*
X116085904Y-74790380D01*
X115800190Y-74790380D02*
X115800190Y-73790380D01*
X115895428Y-73933238D01*
X115990666Y-74028476D01*
X116085904Y-74076095D01*
X114657333Y-73790380D02*
X114847809Y-73790380D01*
X114943047Y-73838000D01*
X114990666Y-73885619D01*
X115085904Y-74028476D01*
X115133523Y-74218952D01*
X115133523Y-74599904D01*
X115085904Y-74695142D01*
X115038285Y-74742761D01*
X114943047Y-74790380D01*
X114752571Y-74790380D01*
X114657333Y-74742761D01*
X114609714Y-74695142D01*
X114562095Y-74599904D01*
X114562095Y-74361809D01*
X114609714Y-74266571D01*
X114657333Y-74218952D01*
X114752571Y-74171333D01*
X114943047Y-74171333D01*
X115038285Y-74218952D01*
X115085904Y-74266571D01*
X115133523Y-74361809D01*
%TO.C,R17*%
X54701880Y-83050142D02*
X54225690Y-82716809D01*
X54701880Y-82478714D02*
X53701880Y-82478714D01*
X53701880Y-82859666D01*
X53749500Y-82954904D01*
X53797119Y-83002523D01*
X53892357Y-83050142D01*
X54035214Y-83050142D01*
X54130452Y-83002523D01*
X54178071Y-82954904D01*
X54225690Y-82859666D01*
X54225690Y-82478714D01*
X54701880Y-84002523D02*
X54701880Y-83431095D01*
X54701880Y-83716809D02*
X53701880Y-83716809D01*
X53844738Y-83621571D01*
X53939976Y-83526333D01*
X53987595Y-83431095D01*
X53701880Y-84335857D02*
X53701880Y-85002523D01*
X54701880Y-84573952D01*
%TO.C,R18*%
X45473857Y-82578380D02*
X45807190Y-82102190D01*
X46045285Y-82578380D02*
X46045285Y-81578380D01*
X45664333Y-81578380D01*
X45569095Y-81626000D01*
X45521476Y-81673619D01*
X45473857Y-81768857D01*
X45473857Y-81911714D01*
X45521476Y-82006952D01*
X45569095Y-82054571D01*
X45664333Y-82102190D01*
X46045285Y-82102190D01*
X44521476Y-82578380D02*
X45092904Y-82578380D01*
X44807190Y-82578380D02*
X44807190Y-81578380D01*
X44902428Y-81721238D01*
X44997666Y-81816476D01*
X45092904Y-81864095D01*
X43950047Y-82006952D02*
X44045285Y-81959333D01*
X44092904Y-81911714D01*
X44140523Y-81816476D01*
X44140523Y-81768857D01*
X44092904Y-81673619D01*
X44045285Y-81626000D01*
X43950047Y-81578380D01*
X43759571Y-81578380D01*
X43664333Y-81626000D01*
X43616714Y-81673619D01*
X43569095Y-81768857D01*
X43569095Y-81816476D01*
X43616714Y-81911714D01*
X43664333Y-81959333D01*
X43759571Y-82006952D01*
X43950047Y-82006952D01*
X44045285Y-82054571D01*
X44092904Y-82102190D01*
X44140523Y-82197428D01*
X44140523Y-82387904D01*
X44092904Y-82483142D01*
X44045285Y-82530761D01*
X43950047Y-82578380D01*
X43759571Y-82578380D01*
X43664333Y-82530761D01*
X43616714Y-82483142D01*
X43569095Y-82387904D01*
X43569095Y-82197428D01*
X43616714Y-82102190D01*
X43664333Y-82054571D01*
X43759571Y-82006952D01*
%TO.C,R19*%
X83446857Y-105184380D02*
X83780190Y-104708190D01*
X84018285Y-105184380D02*
X84018285Y-104184380D01*
X83637333Y-104184380D01*
X83542095Y-104232000D01*
X83494476Y-104279619D01*
X83446857Y-104374857D01*
X83446857Y-104517714D01*
X83494476Y-104612952D01*
X83542095Y-104660571D01*
X83637333Y-104708190D01*
X84018285Y-104708190D01*
X82494476Y-105184380D02*
X83065904Y-105184380D01*
X82780190Y-105184380D02*
X82780190Y-104184380D01*
X82875428Y-104327238D01*
X82970666Y-104422476D01*
X83065904Y-104470095D01*
X82018285Y-105184380D02*
X81827809Y-105184380D01*
X81732571Y-105136761D01*
X81684952Y-105089142D01*
X81589714Y-104946285D01*
X81542095Y-104755809D01*
X81542095Y-104374857D01*
X81589714Y-104279619D01*
X81637333Y-104232000D01*
X81732571Y-104184380D01*
X81923047Y-104184380D01*
X82018285Y-104232000D01*
X82065904Y-104279619D01*
X82113523Y-104374857D01*
X82113523Y-104612952D01*
X82065904Y-104708190D01*
X82018285Y-104755809D01*
X81923047Y-104803428D01*
X81732571Y-104803428D01*
X81637333Y-104755809D01*
X81589714Y-104708190D01*
X81542095Y-104612952D01*
%TO.C,R20*%
X83446857Y-97396380D02*
X83780190Y-96920190D01*
X84018285Y-97396380D02*
X84018285Y-96396380D01*
X83637333Y-96396380D01*
X83542095Y-96444000D01*
X83494476Y-96491619D01*
X83446857Y-96586857D01*
X83446857Y-96729714D01*
X83494476Y-96824952D01*
X83542095Y-96872571D01*
X83637333Y-96920190D01*
X84018285Y-96920190D01*
X83065904Y-96491619D02*
X83018285Y-96444000D01*
X82923047Y-96396380D01*
X82684952Y-96396380D01*
X82589714Y-96444000D01*
X82542095Y-96491619D01*
X82494476Y-96586857D01*
X82494476Y-96682095D01*
X82542095Y-96824952D01*
X83113523Y-97396380D01*
X82494476Y-97396380D01*
X81875428Y-96396380D02*
X81780190Y-96396380D01*
X81684952Y-96444000D01*
X81637333Y-96491619D01*
X81589714Y-96586857D01*
X81542095Y-96777333D01*
X81542095Y-97015428D01*
X81589714Y-97205904D01*
X81637333Y-97301142D01*
X81684952Y-97348761D01*
X81780190Y-97396380D01*
X81875428Y-97396380D01*
X81970666Y-97348761D01*
X82018285Y-97301142D01*
X82065904Y-97205904D01*
X82113523Y-97015428D01*
X82113523Y-96777333D01*
X82065904Y-96586857D01*
X82018285Y-96491619D01*
X81970666Y-96444000D01*
X81875428Y-96396380D01*
%TO.C,R21*%
X83446857Y-94348380D02*
X83780190Y-93872190D01*
X84018285Y-94348380D02*
X84018285Y-93348380D01*
X83637333Y-93348380D01*
X83542095Y-93396000D01*
X83494476Y-93443619D01*
X83446857Y-93538857D01*
X83446857Y-93681714D01*
X83494476Y-93776952D01*
X83542095Y-93824571D01*
X83637333Y-93872190D01*
X84018285Y-93872190D01*
X83065904Y-93443619D02*
X83018285Y-93396000D01*
X82923047Y-93348380D01*
X82684952Y-93348380D01*
X82589714Y-93396000D01*
X82542095Y-93443619D01*
X82494476Y-93538857D01*
X82494476Y-93634095D01*
X82542095Y-93776952D01*
X83113523Y-94348380D01*
X82494476Y-94348380D01*
X81542095Y-94348380D02*
X82113523Y-94348380D01*
X81827809Y-94348380D02*
X81827809Y-93348380D01*
X81923047Y-93491238D01*
X82018285Y-93586476D01*
X82113523Y-93634095D01*
%TO.C,R22*%
X83446857Y-91300380D02*
X83780190Y-90824190D01*
X84018285Y-91300380D02*
X84018285Y-90300380D01*
X83637333Y-90300380D01*
X83542095Y-90348000D01*
X83494476Y-90395619D01*
X83446857Y-90490857D01*
X83446857Y-90633714D01*
X83494476Y-90728952D01*
X83542095Y-90776571D01*
X83637333Y-90824190D01*
X84018285Y-90824190D01*
X83065904Y-90395619D02*
X83018285Y-90348000D01*
X82923047Y-90300380D01*
X82684952Y-90300380D01*
X82589714Y-90348000D01*
X82542095Y-90395619D01*
X82494476Y-90490857D01*
X82494476Y-90586095D01*
X82542095Y-90728952D01*
X83113523Y-91300380D01*
X82494476Y-91300380D01*
X82113523Y-90395619D02*
X82065904Y-90348000D01*
X81970666Y-90300380D01*
X81732571Y-90300380D01*
X81637333Y-90348000D01*
X81589714Y-90395619D01*
X81542095Y-90490857D01*
X81542095Y-90586095D01*
X81589714Y-90728952D01*
X82161142Y-91300380D01*
X81542095Y-91300380D01*
%TO.C,R23*%
X83446857Y-88252380D02*
X83780190Y-87776190D01*
X84018285Y-88252380D02*
X84018285Y-87252380D01*
X83637333Y-87252380D01*
X83542095Y-87300000D01*
X83494476Y-87347619D01*
X83446857Y-87442857D01*
X83446857Y-87585714D01*
X83494476Y-87680952D01*
X83542095Y-87728571D01*
X83637333Y-87776190D01*
X84018285Y-87776190D01*
X83065904Y-87347619D02*
X83018285Y-87300000D01*
X82923047Y-87252380D01*
X82684952Y-87252380D01*
X82589714Y-87300000D01*
X82542095Y-87347619D01*
X82494476Y-87442857D01*
X82494476Y-87538095D01*
X82542095Y-87680952D01*
X83113523Y-88252380D01*
X82494476Y-88252380D01*
X82161142Y-87252380D02*
X81542095Y-87252380D01*
X81875428Y-87633333D01*
X81732571Y-87633333D01*
X81637333Y-87680952D01*
X81589714Y-87728571D01*
X81542095Y-87823809D01*
X81542095Y-88061904D01*
X81589714Y-88157142D01*
X81637333Y-88204761D01*
X81732571Y-88252380D01*
X82018285Y-88252380D01*
X82113523Y-88204761D01*
X82161142Y-88157142D01*
%TO.C,R24*%
X83446857Y-85204380D02*
X83780190Y-84728190D01*
X84018285Y-85204380D02*
X84018285Y-84204380D01*
X83637333Y-84204380D01*
X83542095Y-84252000D01*
X83494476Y-84299619D01*
X83446857Y-84394857D01*
X83446857Y-84537714D01*
X83494476Y-84632952D01*
X83542095Y-84680571D01*
X83637333Y-84728190D01*
X84018285Y-84728190D01*
X83065904Y-84299619D02*
X83018285Y-84252000D01*
X82923047Y-84204380D01*
X82684952Y-84204380D01*
X82589714Y-84252000D01*
X82542095Y-84299619D01*
X82494476Y-84394857D01*
X82494476Y-84490095D01*
X82542095Y-84632952D01*
X83113523Y-85204380D01*
X82494476Y-85204380D01*
X81637333Y-84537714D02*
X81637333Y-85204380D01*
X81875428Y-84156761D02*
X82113523Y-84871047D01*
X81494476Y-84871047D01*
%TO.C,R25*%
X83446857Y-82156380D02*
X83780190Y-81680190D01*
X84018285Y-82156380D02*
X84018285Y-81156380D01*
X83637333Y-81156380D01*
X83542095Y-81204000D01*
X83494476Y-81251619D01*
X83446857Y-81346857D01*
X83446857Y-81489714D01*
X83494476Y-81584952D01*
X83542095Y-81632571D01*
X83637333Y-81680190D01*
X84018285Y-81680190D01*
X83065904Y-81251619D02*
X83018285Y-81204000D01*
X82923047Y-81156380D01*
X82684952Y-81156380D01*
X82589714Y-81204000D01*
X82542095Y-81251619D01*
X82494476Y-81346857D01*
X82494476Y-81442095D01*
X82542095Y-81584952D01*
X83113523Y-82156380D01*
X82494476Y-82156380D01*
X81589714Y-81156380D02*
X82065904Y-81156380D01*
X82113523Y-81632571D01*
X82065904Y-81584952D01*
X81970666Y-81537333D01*
X81732571Y-81537333D01*
X81637333Y-81584952D01*
X81589714Y-81632571D01*
X81542095Y-81727809D01*
X81542095Y-81965904D01*
X81589714Y-82061142D01*
X81637333Y-82108761D01*
X81732571Y-82156380D01*
X81970666Y-82156380D01*
X82065904Y-82108761D01*
X82113523Y-82061142D01*
%TO.C,R26*%
X83446857Y-79108380D02*
X83780190Y-78632190D01*
X84018285Y-79108380D02*
X84018285Y-78108380D01*
X83637333Y-78108380D01*
X83542095Y-78156000D01*
X83494476Y-78203619D01*
X83446857Y-78298857D01*
X83446857Y-78441714D01*
X83494476Y-78536952D01*
X83542095Y-78584571D01*
X83637333Y-78632190D01*
X84018285Y-78632190D01*
X83065904Y-78203619D02*
X83018285Y-78156000D01*
X82923047Y-78108380D01*
X82684952Y-78108380D01*
X82589714Y-78156000D01*
X82542095Y-78203619D01*
X82494476Y-78298857D01*
X82494476Y-78394095D01*
X82542095Y-78536952D01*
X83113523Y-79108380D01*
X82494476Y-79108380D01*
X81637333Y-78108380D02*
X81827809Y-78108380D01*
X81923047Y-78156000D01*
X81970666Y-78203619D01*
X82065904Y-78346476D01*
X82113523Y-78536952D01*
X82113523Y-78917904D01*
X82065904Y-79013142D01*
X82018285Y-79060761D01*
X81923047Y-79108380D01*
X81732571Y-79108380D01*
X81637333Y-79060761D01*
X81589714Y-79013142D01*
X81542095Y-78917904D01*
X81542095Y-78679809D01*
X81589714Y-78584571D01*
X81637333Y-78536952D01*
X81732571Y-78489333D01*
X81923047Y-78489333D01*
X82018285Y-78536952D01*
X82065904Y-78584571D01*
X82113523Y-78679809D01*
%TO.C,R27*%
X95892857Y-103660380D02*
X96226190Y-103184190D01*
X96464285Y-103660380D02*
X96464285Y-102660380D01*
X96083333Y-102660380D01*
X95988095Y-102708000D01*
X95940476Y-102755619D01*
X95892857Y-102850857D01*
X95892857Y-102993714D01*
X95940476Y-103088952D01*
X95988095Y-103136571D01*
X96083333Y-103184190D01*
X96464285Y-103184190D01*
X95511904Y-102755619D02*
X95464285Y-102708000D01*
X95369047Y-102660380D01*
X95130952Y-102660380D01*
X95035714Y-102708000D01*
X94988095Y-102755619D01*
X94940476Y-102850857D01*
X94940476Y-102946095D01*
X94988095Y-103088952D01*
X95559523Y-103660380D01*
X94940476Y-103660380D01*
X94607142Y-102660380D02*
X93940476Y-102660380D01*
X94369047Y-103660380D01*
%TO.C,R28*%
X95892857Y-100612380D02*
X96226190Y-100136190D01*
X96464285Y-100612380D02*
X96464285Y-99612380D01*
X96083333Y-99612380D01*
X95988095Y-99660000D01*
X95940476Y-99707619D01*
X95892857Y-99802857D01*
X95892857Y-99945714D01*
X95940476Y-100040952D01*
X95988095Y-100088571D01*
X96083333Y-100136190D01*
X96464285Y-100136190D01*
X95511904Y-99707619D02*
X95464285Y-99660000D01*
X95369047Y-99612380D01*
X95130952Y-99612380D01*
X95035714Y-99660000D01*
X94988095Y-99707619D01*
X94940476Y-99802857D01*
X94940476Y-99898095D01*
X94988095Y-100040952D01*
X95559523Y-100612380D01*
X94940476Y-100612380D01*
X94369047Y-100040952D02*
X94464285Y-99993333D01*
X94511904Y-99945714D01*
X94559523Y-99850476D01*
X94559523Y-99802857D01*
X94511904Y-99707619D01*
X94464285Y-99660000D01*
X94369047Y-99612380D01*
X94178571Y-99612380D01*
X94083333Y-99660000D01*
X94035714Y-99707619D01*
X93988095Y-99802857D01*
X93988095Y-99850476D01*
X94035714Y-99945714D01*
X94083333Y-99993333D01*
X94178571Y-100040952D01*
X94369047Y-100040952D01*
X94464285Y-100088571D01*
X94511904Y-100136190D01*
X94559523Y-100231428D01*
X94559523Y-100421904D01*
X94511904Y-100517142D01*
X94464285Y-100564761D01*
X94369047Y-100612380D01*
X94178571Y-100612380D01*
X94083333Y-100564761D01*
X94035714Y-100517142D01*
X93988095Y-100421904D01*
X93988095Y-100231428D01*
X94035714Y-100136190D01*
X94083333Y-100088571D01*
X94178571Y-100040952D01*
%TO.C,R29*%
X95892857Y-97564380D02*
X96226190Y-97088190D01*
X96464285Y-97564380D02*
X96464285Y-96564380D01*
X96083333Y-96564380D01*
X95988095Y-96612000D01*
X95940476Y-96659619D01*
X95892857Y-96754857D01*
X95892857Y-96897714D01*
X95940476Y-96992952D01*
X95988095Y-97040571D01*
X96083333Y-97088190D01*
X96464285Y-97088190D01*
X95511904Y-96659619D02*
X95464285Y-96612000D01*
X95369047Y-96564380D01*
X95130952Y-96564380D01*
X95035714Y-96612000D01*
X94988095Y-96659619D01*
X94940476Y-96754857D01*
X94940476Y-96850095D01*
X94988095Y-96992952D01*
X95559523Y-97564380D01*
X94940476Y-97564380D01*
X94464285Y-97564380D02*
X94273809Y-97564380D01*
X94178571Y-97516761D01*
X94130952Y-97469142D01*
X94035714Y-97326285D01*
X93988095Y-97135809D01*
X93988095Y-96754857D01*
X94035714Y-96659619D01*
X94083333Y-96612000D01*
X94178571Y-96564380D01*
X94369047Y-96564380D01*
X94464285Y-96612000D01*
X94511904Y-96659619D01*
X94559523Y-96754857D01*
X94559523Y-96992952D01*
X94511904Y-97088190D01*
X94464285Y-97135809D01*
X94369047Y-97183428D01*
X94178571Y-97183428D01*
X94083333Y-97135809D01*
X94035714Y-97088190D01*
X93988095Y-96992952D01*
%TO.C,R30*%
X95892857Y-94516380D02*
X96226190Y-94040190D01*
X96464285Y-94516380D02*
X96464285Y-93516380D01*
X96083333Y-93516380D01*
X95988095Y-93564000D01*
X95940476Y-93611619D01*
X95892857Y-93706857D01*
X95892857Y-93849714D01*
X95940476Y-93944952D01*
X95988095Y-93992571D01*
X96083333Y-94040190D01*
X96464285Y-94040190D01*
X95559523Y-93516380D02*
X94940476Y-93516380D01*
X95273809Y-93897333D01*
X95130952Y-93897333D01*
X95035714Y-93944952D01*
X94988095Y-93992571D01*
X94940476Y-94087809D01*
X94940476Y-94325904D01*
X94988095Y-94421142D01*
X95035714Y-94468761D01*
X95130952Y-94516380D01*
X95416666Y-94516380D01*
X95511904Y-94468761D01*
X95559523Y-94421142D01*
X94321428Y-93516380D02*
X94226190Y-93516380D01*
X94130952Y-93564000D01*
X94083333Y-93611619D01*
X94035714Y-93706857D01*
X93988095Y-93897333D01*
X93988095Y-94135428D01*
X94035714Y-94325904D01*
X94083333Y-94421142D01*
X94130952Y-94468761D01*
X94226190Y-94516380D01*
X94321428Y-94516380D01*
X94416666Y-94468761D01*
X94464285Y-94421142D01*
X94511904Y-94325904D01*
X94559523Y-94135428D01*
X94559523Y-93897333D01*
X94511904Y-93706857D01*
X94464285Y-93611619D01*
X94416666Y-93564000D01*
X94321428Y-93516380D01*
%TO.C,R31*%
X95892857Y-91468380D02*
X96226190Y-90992190D01*
X96464285Y-91468380D02*
X96464285Y-90468380D01*
X96083333Y-90468380D01*
X95988095Y-90516000D01*
X95940476Y-90563619D01*
X95892857Y-90658857D01*
X95892857Y-90801714D01*
X95940476Y-90896952D01*
X95988095Y-90944571D01*
X96083333Y-90992190D01*
X96464285Y-90992190D01*
X95559523Y-90468380D02*
X94940476Y-90468380D01*
X95273809Y-90849333D01*
X95130952Y-90849333D01*
X95035714Y-90896952D01*
X94988095Y-90944571D01*
X94940476Y-91039809D01*
X94940476Y-91277904D01*
X94988095Y-91373142D01*
X95035714Y-91420761D01*
X95130952Y-91468380D01*
X95416666Y-91468380D01*
X95511904Y-91420761D01*
X95559523Y-91373142D01*
X93988095Y-91468380D02*
X94559523Y-91468380D01*
X94273809Y-91468380D02*
X94273809Y-90468380D01*
X94369047Y-90611238D01*
X94464285Y-90706476D01*
X94559523Y-90754095D01*
%TO.C,R32*%
X95892857Y-85626380D02*
X96226190Y-85150190D01*
X96464285Y-85626380D02*
X96464285Y-84626380D01*
X96083333Y-84626380D01*
X95988095Y-84674000D01*
X95940476Y-84721619D01*
X95892857Y-84816857D01*
X95892857Y-84959714D01*
X95940476Y-85054952D01*
X95988095Y-85102571D01*
X96083333Y-85150190D01*
X96464285Y-85150190D01*
X95559523Y-84626380D02*
X94940476Y-84626380D01*
X95273809Y-85007333D01*
X95130952Y-85007333D01*
X95035714Y-85054952D01*
X94988095Y-85102571D01*
X94940476Y-85197809D01*
X94940476Y-85435904D01*
X94988095Y-85531142D01*
X95035714Y-85578761D01*
X95130952Y-85626380D01*
X95416666Y-85626380D01*
X95511904Y-85578761D01*
X95559523Y-85531142D01*
X94559523Y-84721619D02*
X94511904Y-84674000D01*
X94416666Y-84626380D01*
X94178571Y-84626380D01*
X94083333Y-84674000D01*
X94035714Y-84721619D01*
X93988095Y-84816857D01*
X93988095Y-84912095D01*
X94035714Y-85054952D01*
X94607142Y-85626380D01*
X93988095Y-85626380D01*
%TO.C,R33*%
X95892857Y-82578380D02*
X96226190Y-82102190D01*
X96464285Y-82578380D02*
X96464285Y-81578380D01*
X96083333Y-81578380D01*
X95988095Y-81626000D01*
X95940476Y-81673619D01*
X95892857Y-81768857D01*
X95892857Y-81911714D01*
X95940476Y-82006952D01*
X95988095Y-82054571D01*
X96083333Y-82102190D01*
X96464285Y-82102190D01*
X95559523Y-81578380D02*
X94940476Y-81578380D01*
X95273809Y-81959333D01*
X95130952Y-81959333D01*
X95035714Y-82006952D01*
X94988095Y-82054571D01*
X94940476Y-82149809D01*
X94940476Y-82387904D01*
X94988095Y-82483142D01*
X95035714Y-82530761D01*
X95130952Y-82578380D01*
X95416666Y-82578380D01*
X95511904Y-82530761D01*
X95559523Y-82483142D01*
X94607142Y-81578380D02*
X93988095Y-81578380D01*
X94321428Y-81959333D01*
X94178571Y-81959333D01*
X94083333Y-82006952D01*
X94035714Y-82054571D01*
X93988095Y-82149809D01*
X93988095Y-82387904D01*
X94035714Y-82483142D01*
X94083333Y-82530761D01*
X94178571Y-82578380D01*
X94464285Y-82578380D01*
X94559523Y-82530761D01*
X94607142Y-82483142D01*
%TO.C,R34*%
X95892857Y-79530380D02*
X96226190Y-79054190D01*
X96464285Y-79530380D02*
X96464285Y-78530380D01*
X96083333Y-78530380D01*
X95988095Y-78578000D01*
X95940476Y-78625619D01*
X95892857Y-78720857D01*
X95892857Y-78863714D01*
X95940476Y-78958952D01*
X95988095Y-79006571D01*
X96083333Y-79054190D01*
X96464285Y-79054190D01*
X95559523Y-78530380D02*
X94940476Y-78530380D01*
X95273809Y-78911333D01*
X95130952Y-78911333D01*
X95035714Y-78958952D01*
X94988095Y-79006571D01*
X94940476Y-79101809D01*
X94940476Y-79339904D01*
X94988095Y-79435142D01*
X95035714Y-79482761D01*
X95130952Y-79530380D01*
X95416666Y-79530380D01*
X95511904Y-79482761D01*
X95559523Y-79435142D01*
X94083333Y-78863714D02*
X94083333Y-79530380D01*
X94321428Y-78482761D02*
X94559523Y-79197047D01*
X93940476Y-79197047D01*
%TO.C,R35*%
X50934857Y-73434380D02*
X51268190Y-72958190D01*
X51506285Y-73434380D02*
X51506285Y-72434380D01*
X51125333Y-72434380D01*
X51030095Y-72482000D01*
X50982476Y-72529619D01*
X50934857Y-72624857D01*
X50934857Y-72767714D01*
X50982476Y-72862952D01*
X51030095Y-72910571D01*
X51125333Y-72958190D01*
X51506285Y-72958190D01*
X50601523Y-72434380D02*
X49982476Y-72434380D01*
X50315809Y-72815333D01*
X50172952Y-72815333D01*
X50077714Y-72862952D01*
X50030095Y-72910571D01*
X49982476Y-73005809D01*
X49982476Y-73243904D01*
X50030095Y-73339142D01*
X50077714Y-73386761D01*
X50172952Y-73434380D01*
X50458666Y-73434380D01*
X50553904Y-73386761D01*
X50601523Y-73339142D01*
X49077714Y-72434380D02*
X49553904Y-72434380D01*
X49601523Y-72910571D01*
X49553904Y-72862952D01*
X49458666Y-72815333D01*
X49220571Y-72815333D01*
X49125333Y-72862952D01*
X49077714Y-72910571D01*
X49030095Y-73005809D01*
X49030095Y-73243904D01*
X49077714Y-73339142D01*
X49125333Y-73386761D01*
X49220571Y-73434380D01*
X49458666Y-73434380D01*
X49553904Y-73386761D01*
X49601523Y-73339142D01*
%TO.C,R36*%
X58321380Y-83050142D02*
X57845190Y-82716809D01*
X58321380Y-82478714D02*
X57321380Y-82478714D01*
X57321380Y-82859666D01*
X57369000Y-82954904D01*
X57416619Y-83002523D01*
X57511857Y-83050142D01*
X57654714Y-83050142D01*
X57749952Y-83002523D01*
X57797571Y-82954904D01*
X57845190Y-82859666D01*
X57845190Y-82478714D01*
X57321380Y-83383476D02*
X57321380Y-84002523D01*
X57702333Y-83669190D01*
X57702333Y-83812047D01*
X57749952Y-83907285D01*
X57797571Y-83954904D01*
X57892809Y-84002523D01*
X58130904Y-84002523D01*
X58226142Y-83954904D01*
X58273761Y-83907285D01*
X58321380Y-83812047D01*
X58321380Y-83526333D01*
X58273761Y-83431095D01*
X58226142Y-83383476D01*
X57321380Y-84859666D02*
X57321380Y-84669190D01*
X57369000Y-84573952D01*
X57416619Y-84526333D01*
X57559476Y-84431095D01*
X57749952Y-84383476D01*
X58130904Y-84383476D01*
X58226142Y-84431095D01*
X58273761Y-84478714D01*
X58321380Y-84573952D01*
X58321380Y-84764428D01*
X58273761Y-84859666D01*
X58226142Y-84907285D01*
X58130904Y-84954904D01*
X57892809Y-84954904D01*
X57797571Y-84907285D01*
X57749952Y-84859666D01*
X57702333Y-84764428D01*
X57702333Y-84573952D01*
X57749952Y-84478714D01*
X57797571Y-84431095D01*
X57892809Y-84383476D01*
%TO.C,R37*%
X128150857Y-71742380D02*
X128484190Y-71266190D01*
X128722285Y-71742380D02*
X128722285Y-70742380D01*
X128341333Y-70742380D01*
X128246095Y-70790000D01*
X128198476Y-70837619D01*
X128150857Y-70932857D01*
X128150857Y-71075714D01*
X128198476Y-71170952D01*
X128246095Y-71218571D01*
X128341333Y-71266190D01*
X128722285Y-71266190D01*
X127817523Y-70742380D02*
X127198476Y-70742380D01*
X127531809Y-71123333D01*
X127388952Y-71123333D01*
X127293714Y-71170952D01*
X127246095Y-71218571D01*
X127198476Y-71313809D01*
X127198476Y-71551904D01*
X127246095Y-71647142D01*
X127293714Y-71694761D01*
X127388952Y-71742380D01*
X127674666Y-71742380D01*
X127769904Y-71694761D01*
X127817523Y-71647142D01*
X126865142Y-70742380D02*
X126198476Y-70742380D01*
X126627047Y-71742380D01*
%TO.C,R38*%
X128150857Y-73434380D02*
X128484190Y-72958190D01*
X128722285Y-73434380D02*
X128722285Y-72434380D01*
X128341333Y-72434380D01*
X128246095Y-72482000D01*
X128198476Y-72529619D01*
X128150857Y-72624857D01*
X128150857Y-72767714D01*
X128198476Y-72862952D01*
X128246095Y-72910571D01*
X128341333Y-72958190D01*
X128722285Y-72958190D01*
X127817523Y-72434380D02*
X127198476Y-72434380D01*
X127531809Y-72815333D01*
X127388952Y-72815333D01*
X127293714Y-72862952D01*
X127246095Y-72910571D01*
X127198476Y-73005809D01*
X127198476Y-73243904D01*
X127246095Y-73339142D01*
X127293714Y-73386761D01*
X127388952Y-73434380D01*
X127674666Y-73434380D01*
X127769904Y-73386761D01*
X127817523Y-73339142D01*
X126627047Y-72862952D02*
X126722285Y-72815333D01*
X126769904Y-72767714D01*
X126817523Y-72672476D01*
X126817523Y-72624857D01*
X126769904Y-72529619D01*
X126722285Y-72482000D01*
X126627047Y-72434380D01*
X126436571Y-72434380D01*
X126341333Y-72482000D01*
X126293714Y-72529619D01*
X126246095Y-72624857D01*
X126246095Y-72672476D01*
X126293714Y-72767714D01*
X126341333Y-72815333D01*
X126436571Y-72862952D01*
X126627047Y-72862952D01*
X126722285Y-72910571D01*
X126769904Y-72958190D01*
X126817523Y-73053428D01*
X126817523Y-73243904D01*
X126769904Y-73339142D01*
X126722285Y-73386761D01*
X126627047Y-73434380D01*
X126436571Y-73434380D01*
X126341333Y-73386761D01*
X126293714Y-73339142D01*
X126246095Y-73243904D01*
X126246095Y-73053428D01*
X126293714Y-72958190D01*
X126341333Y-72910571D01*
X126436571Y-72862952D01*
%TO.C,R39*%
X128150857Y-70386380D02*
X128484190Y-69910190D01*
X128722285Y-70386380D02*
X128722285Y-69386380D01*
X128341333Y-69386380D01*
X128246095Y-69434000D01*
X128198476Y-69481619D01*
X128150857Y-69576857D01*
X128150857Y-69719714D01*
X128198476Y-69814952D01*
X128246095Y-69862571D01*
X128341333Y-69910190D01*
X128722285Y-69910190D01*
X127817523Y-69386380D02*
X127198476Y-69386380D01*
X127531809Y-69767333D01*
X127388952Y-69767333D01*
X127293714Y-69814952D01*
X127246095Y-69862571D01*
X127198476Y-69957809D01*
X127198476Y-70195904D01*
X127246095Y-70291142D01*
X127293714Y-70338761D01*
X127388952Y-70386380D01*
X127674666Y-70386380D01*
X127769904Y-70338761D01*
X127817523Y-70291142D01*
X126722285Y-70386380D02*
X126531809Y-70386380D01*
X126436571Y-70338761D01*
X126388952Y-70291142D01*
X126293714Y-70148285D01*
X126246095Y-69957809D01*
X126246095Y-69576857D01*
X126293714Y-69481619D01*
X126341333Y-69434000D01*
X126436571Y-69386380D01*
X126627047Y-69386380D01*
X126722285Y-69434000D01*
X126769904Y-69481619D01*
X126817523Y-69576857D01*
X126817523Y-69814952D01*
X126769904Y-69910190D01*
X126722285Y-69957809D01*
X126627047Y-70005428D01*
X126436571Y-70005428D01*
X126341333Y-69957809D01*
X126293714Y-69910190D01*
X126246095Y-69814952D01*
%TO.C,R40*%
X128150857Y-67338380D02*
X128484190Y-66862190D01*
X128722285Y-67338380D02*
X128722285Y-66338380D01*
X128341333Y-66338380D01*
X128246095Y-66386000D01*
X128198476Y-66433619D01*
X128150857Y-66528857D01*
X128150857Y-66671714D01*
X128198476Y-66766952D01*
X128246095Y-66814571D01*
X128341333Y-66862190D01*
X128722285Y-66862190D01*
X127293714Y-66671714D02*
X127293714Y-67338380D01*
X127531809Y-66290761D02*
X127769904Y-67005047D01*
X127150857Y-67005047D01*
X126579428Y-66338380D02*
X126484190Y-66338380D01*
X126388952Y-66386000D01*
X126341333Y-66433619D01*
X126293714Y-66528857D01*
X126246095Y-66719333D01*
X126246095Y-66957428D01*
X126293714Y-67147904D01*
X126341333Y-67243142D01*
X126388952Y-67290761D01*
X126484190Y-67338380D01*
X126579428Y-67338380D01*
X126674666Y-67290761D01*
X126722285Y-67243142D01*
X126769904Y-67147904D01*
X126817523Y-66957428D01*
X126817523Y-66719333D01*
X126769904Y-66528857D01*
X126722285Y-66433619D01*
X126674666Y-66386000D01*
X126579428Y-66338380D01*
%TO.C,R41*%
X128150857Y-64290380D02*
X128484190Y-63814190D01*
X128722285Y-64290380D02*
X128722285Y-63290380D01*
X128341333Y-63290380D01*
X128246095Y-63338000D01*
X128198476Y-63385619D01*
X128150857Y-63480857D01*
X128150857Y-63623714D01*
X128198476Y-63718952D01*
X128246095Y-63766571D01*
X128341333Y-63814190D01*
X128722285Y-63814190D01*
X127293714Y-63623714D02*
X127293714Y-64290380D01*
X127531809Y-63242761D02*
X127769904Y-63957047D01*
X127150857Y-63957047D01*
X126246095Y-64290380D02*
X126817523Y-64290380D01*
X126531809Y-64290380D02*
X126531809Y-63290380D01*
X126627047Y-63433238D01*
X126722285Y-63528476D01*
X126817523Y-63576095D01*
%TO.C,R42*%
X128150857Y-61242380D02*
X128484190Y-60766190D01*
X128722285Y-61242380D02*
X128722285Y-60242380D01*
X128341333Y-60242380D01*
X128246095Y-60290000D01*
X128198476Y-60337619D01*
X128150857Y-60432857D01*
X128150857Y-60575714D01*
X128198476Y-60670952D01*
X128246095Y-60718571D01*
X128341333Y-60766190D01*
X128722285Y-60766190D01*
X127293714Y-60575714D02*
X127293714Y-61242380D01*
X127531809Y-60194761D02*
X127769904Y-60909047D01*
X127150857Y-60909047D01*
X126817523Y-60337619D02*
X126769904Y-60290000D01*
X126674666Y-60242380D01*
X126436571Y-60242380D01*
X126341333Y-60290000D01*
X126293714Y-60337619D01*
X126246095Y-60432857D01*
X126246095Y-60528095D01*
X126293714Y-60670952D01*
X126865142Y-61242380D01*
X126246095Y-61242380D01*
%TO.C,R43*%
X128150857Y-58194380D02*
X128484190Y-57718190D01*
X128722285Y-58194380D02*
X128722285Y-57194380D01*
X128341333Y-57194380D01*
X128246095Y-57242000D01*
X128198476Y-57289619D01*
X128150857Y-57384857D01*
X128150857Y-57527714D01*
X128198476Y-57622952D01*
X128246095Y-57670571D01*
X128341333Y-57718190D01*
X128722285Y-57718190D01*
X127293714Y-57527714D02*
X127293714Y-58194380D01*
X127531809Y-57146761D02*
X127769904Y-57861047D01*
X127150857Y-57861047D01*
X126865142Y-57194380D02*
X126246095Y-57194380D01*
X126579428Y-57575333D01*
X126436571Y-57575333D01*
X126341333Y-57622952D01*
X126293714Y-57670571D01*
X126246095Y-57765809D01*
X126246095Y-58003904D01*
X126293714Y-58099142D01*
X126341333Y-58146761D01*
X126436571Y-58194380D01*
X126722285Y-58194380D01*
X126817523Y-58146761D01*
X126865142Y-58099142D01*
%TO.C,R44*%
X128150857Y-55146380D02*
X128484190Y-54670190D01*
X128722285Y-55146380D02*
X128722285Y-54146380D01*
X128341333Y-54146380D01*
X128246095Y-54194000D01*
X128198476Y-54241619D01*
X128150857Y-54336857D01*
X128150857Y-54479714D01*
X128198476Y-54574952D01*
X128246095Y-54622571D01*
X128341333Y-54670190D01*
X128722285Y-54670190D01*
X127293714Y-54479714D02*
X127293714Y-55146380D01*
X127531809Y-54098761D02*
X127769904Y-54813047D01*
X127150857Y-54813047D01*
X126341333Y-54479714D02*
X126341333Y-55146380D01*
X126579428Y-54098761D02*
X126817523Y-54813047D01*
X126198476Y-54813047D01*
%TO.C,R45*%
X116466857Y-71742380D02*
X116800190Y-71266190D01*
X117038285Y-71742380D02*
X117038285Y-70742380D01*
X116657333Y-70742380D01*
X116562095Y-70790000D01*
X116514476Y-70837619D01*
X116466857Y-70932857D01*
X116466857Y-71075714D01*
X116514476Y-71170952D01*
X116562095Y-71218571D01*
X116657333Y-71266190D01*
X117038285Y-71266190D01*
X115609714Y-71075714D02*
X115609714Y-71742380D01*
X115847809Y-70694761D02*
X116085904Y-71409047D01*
X115466857Y-71409047D01*
X114609714Y-70742380D02*
X115085904Y-70742380D01*
X115133523Y-71218571D01*
X115085904Y-71170952D01*
X114990666Y-71123333D01*
X114752571Y-71123333D01*
X114657333Y-71170952D01*
X114609714Y-71218571D01*
X114562095Y-71313809D01*
X114562095Y-71551904D01*
X114609714Y-71647142D01*
X114657333Y-71694761D01*
X114752571Y-71742380D01*
X114990666Y-71742380D01*
X115085904Y-71694761D01*
X115133523Y-71647142D01*
%TO.C,R46*%
X116466857Y-68694380D02*
X116800190Y-68218190D01*
X117038285Y-68694380D02*
X117038285Y-67694380D01*
X116657333Y-67694380D01*
X116562095Y-67742000D01*
X116514476Y-67789619D01*
X116466857Y-67884857D01*
X116466857Y-68027714D01*
X116514476Y-68122952D01*
X116562095Y-68170571D01*
X116657333Y-68218190D01*
X117038285Y-68218190D01*
X115609714Y-68027714D02*
X115609714Y-68694380D01*
X115847809Y-67646761D02*
X116085904Y-68361047D01*
X115466857Y-68361047D01*
X114657333Y-67694380D02*
X114847809Y-67694380D01*
X114943047Y-67742000D01*
X114990666Y-67789619D01*
X115085904Y-67932476D01*
X115133523Y-68122952D01*
X115133523Y-68503904D01*
X115085904Y-68599142D01*
X115038285Y-68646761D01*
X114943047Y-68694380D01*
X114752571Y-68694380D01*
X114657333Y-68646761D01*
X114609714Y-68599142D01*
X114562095Y-68503904D01*
X114562095Y-68265809D01*
X114609714Y-68170571D01*
X114657333Y-68122952D01*
X114752571Y-68075333D01*
X114943047Y-68075333D01*
X115038285Y-68122952D01*
X115085904Y-68170571D01*
X115133523Y-68265809D01*
%TO.C,R47*%
X116466857Y-65646380D02*
X116800190Y-65170190D01*
X117038285Y-65646380D02*
X117038285Y-64646380D01*
X116657333Y-64646380D01*
X116562095Y-64694000D01*
X116514476Y-64741619D01*
X116466857Y-64836857D01*
X116466857Y-64979714D01*
X116514476Y-65074952D01*
X116562095Y-65122571D01*
X116657333Y-65170190D01*
X117038285Y-65170190D01*
X115609714Y-64979714D02*
X115609714Y-65646380D01*
X115847809Y-64598761D02*
X116085904Y-65313047D01*
X115466857Y-65313047D01*
X115181142Y-64646380D02*
X114514476Y-64646380D01*
X114943047Y-65646380D01*
%TO.C,R48*%
X116466857Y-62598380D02*
X116800190Y-62122190D01*
X117038285Y-62598380D02*
X117038285Y-61598380D01*
X116657333Y-61598380D01*
X116562095Y-61646000D01*
X116514476Y-61693619D01*
X116466857Y-61788857D01*
X116466857Y-61931714D01*
X116514476Y-62026952D01*
X116562095Y-62074571D01*
X116657333Y-62122190D01*
X117038285Y-62122190D01*
X115609714Y-61931714D02*
X115609714Y-62598380D01*
X115847809Y-61550761D02*
X116085904Y-62265047D01*
X115466857Y-62265047D01*
X114943047Y-62026952D02*
X115038285Y-61979333D01*
X115085904Y-61931714D01*
X115133523Y-61836476D01*
X115133523Y-61788857D01*
X115085904Y-61693619D01*
X115038285Y-61646000D01*
X114943047Y-61598380D01*
X114752571Y-61598380D01*
X114657333Y-61646000D01*
X114609714Y-61693619D01*
X114562095Y-61788857D01*
X114562095Y-61836476D01*
X114609714Y-61931714D01*
X114657333Y-61979333D01*
X114752571Y-62026952D01*
X114943047Y-62026952D01*
X115038285Y-62074571D01*
X115085904Y-62122190D01*
X115133523Y-62217428D01*
X115133523Y-62407904D01*
X115085904Y-62503142D01*
X115038285Y-62550761D01*
X114943047Y-62598380D01*
X114752571Y-62598380D01*
X114657333Y-62550761D01*
X114609714Y-62503142D01*
X114562095Y-62407904D01*
X114562095Y-62217428D01*
X114609714Y-62122190D01*
X114657333Y-62074571D01*
X114752571Y-62026952D01*
%TO.C,R49*%
X116466857Y-59550380D02*
X116800190Y-59074190D01*
X117038285Y-59550380D02*
X117038285Y-58550380D01*
X116657333Y-58550380D01*
X116562095Y-58598000D01*
X116514476Y-58645619D01*
X116466857Y-58740857D01*
X116466857Y-58883714D01*
X116514476Y-58978952D01*
X116562095Y-59026571D01*
X116657333Y-59074190D01*
X117038285Y-59074190D01*
X115609714Y-58883714D02*
X115609714Y-59550380D01*
X115847809Y-58502761D02*
X116085904Y-59217047D01*
X115466857Y-59217047D01*
X115038285Y-59550380D02*
X114847809Y-59550380D01*
X114752571Y-59502761D01*
X114704952Y-59455142D01*
X114609714Y-59312285D01*
X114562095Y-59121809D01*
X114562095Y-58740857D01*
X114609714Y-58645619D01*
X114657333Y-58598000D01*
X114752571Y-58550380D01*
X114943047Y-58550380D01*
X115038285Y-58598000D01*
X115085904Y-58645619D01*
X115133523Y-58740857D01*
X115133523Y-58978952D01*
X115085904Y-59074190D01*
X115038285Y-59121809D01*
X114943047Y-59169428D01*
X114752571Y-59169428D01*
X114657333Y-59121809D01*
X114609714Y-59074190D01*
X114562095Y-58978952D01*
%TO.C,R50*%
X116466857Y-56502380D02*
X116800190Y-56026190D01*
X117038285Y-56502380D02*
X117038285Y-55502380D01*
X116657333Y-55502380D01*
X116562095Y-55550000D01*
X116514476Y-55597619D01*
X116466857Y-55692857D01*
X116466857Y-55835714D01*
X116514476Y-55930952D01*
X116562095Y-55978571D01*
X116657333Y-56026190D01*
X117038285Y-56026190D01*
X115562095Y-55502380D02*
X116038285Y-55502380D01*
X116085904Y-55978571D01*
X116038285Y-55930952D01*
X115943047Y-55883333D01*
X115704952Y-55883333D01*
X115609714Y-55930952D01*
X115562095Y-55978571D01*
X115514476Y-56073809D01*
X115514476Y-56311904D01*
X115562095Y-56407142D01*
X115609714Y-56454761D01*
X115704952Y-56502380D01*
X115943047Y-56502380D01*
X116038285Y-56454761D01*
X116085904Y-56407142D01*
X114895428Y-55502380D02*
X114800190Y-55502380D01*
X114704952Y-55550000D01*
X114657333Y-55597619D01*
X114609714Y-55692857D01*
X114562095Y-55883333D01*
X114562095Y-56121428D01*
X114609714Y-56311904D01*
X114657333Y-56407142D01*
X114704952Y-56454761D01*
X114800190Y-56502380D01*
X114895428Y-56502380D01*
X114990666Y-56454761D01*
X115038285Y-56407142D01*
X115085904Y-56311904D01*
X115133523Y-56121428D01*
X115133523Y-55883333D01*
X115085904Y-55692857D01*
X115038285Y-55597619D01*
X114990666Y-55550000D01*
X114895428Y-55502380D01*
%TO.C,R51*%
X116466857Y-53454380D02*
X116800190Y-52978190D01*
X117038285Y-53454380D02*
X117038285Y-52454380D01*
X116657333Y-52454380D01*
X116562095Y-52502000D01*
X116514476Y-52549619D01*
X116466857Y-52644857D01*
X116466857Y-52787714D01*
X116514476Y-52882952D01*
X116562095Y-52930571D01*
X116657333Y-52978190D01*
X117038285Y-52978190D01*
X115562095Y-52454380D02*
X116038285Y-52454380D01*
X116085904Y-52930571D01*
X116038285Y-52882952D01*
X115943047Y-52835333D01*
X115704952Y-52835333D01*
X115609714Y-52882952D01*
X115562095Y-52930571D01*
X115514476Y-53025809D01*
X115514476Y-53263904D01*
X115562095Y-53359142D01*
X115609714Y-53406761D01*
X115704952Y-53454380D01*
X115943047Y-53454380D01*
X116038285Y-53406761D01*
X116085904Y-53359142D01*
X114562095Y-53454380D02*
X115133523Y-53454380D01*
X114847809Y-53454380D02*
X114847809Y-52454380D01*
X114943047Y-52597238D01*
X115038285Y-52692476D01*
X115133523Y-52740095D01*
%TO.C,R52*%
X116466857Y-50406380D02*
X116800190Y-49930190D01*
X117038285Y-50406380D02*
X117038285Y-49406380D01*
X116657333Y-49406380D01*
X116562095Y-49454000D01*
X116514476Y-49501619D01*
X116466857Y-49596857D01*
X116466857Y-49739714D01*
X116514476Y-49834952D01*
X116562095Y-49882571D01*
X116657333Y-49930190D01*
X117038285Y-49930190D01*
X115562095Y-49406380D02*
X116038285Y-49406380D01*
X116085904Y-49882571D01*
X116038285Y-49834952D01*
X115943047Y-49787333D01*
X115704952Y-49787333D01*
X115609714Y-49834952D01*
X115562095Y-49882571D01*
X115514476Y-49977809D01*
X115514476Y-50215904D01*
X115562095Y-50311142D01*
X115609714Y-50358761D01*
X115704952Y-50406380D01*
X115943047Y-50406380D01*
X116038285Y-50358761D01*
X116085904Y-50311142D01*
X115133523Y-49501619D02*
X115085904Y-49454000D01*
X114990666Y-49406380D01*
X114752571Y-49406380D01*
X114657333Y-49454000D01*
X114609714Y-49501619D01*
X114562095Y-49596857D01*
X114562095Y-49692095D01*
X114609714Y-49834952D01*
X115181142Y-50406380D01*
X114562095Y-50406380D01*
%TO.C,R53*%
X68694380Y-66159142D02*
X68218190Y-65825809D01*
X68694380Y-65587714D02*
X67694380Y-65587714D01*
X67694380Y-65968666D01*
X67742000Y-66063904D01*
X67789619Y-66111523D01*
X67884857Y-66159142D01*
X68027714Y-66159142D01*
X68122952Y-66111523D01*
X68170571Y-66063904D01*
X68218190Y-65968666D01*
X68218190Y-65587714D01*
X67694380Y-67063904D02*
X67694380Y-66587714D01*
X68170571Y-66540095D01*
X68122952Y-66587714D01*
X68075333Y-66682952D01*
X68075333Y-66921047D01*
X68122952Y-67016285D01*
X68170571Y-67063904D01*
X68265809Y-67111523D01*
X68503904Y-67111523D01*
X68599142Y-67063904D01*
X68646761Y-67016285D01*
X68694380Y-66921047D01*
X68694380Y-66682952D01*
X68646761Y-66587714D01*
X68599142Y-66540095D01*
X67694380Y-67444857D02*
X67694380Y-68063904D01*
X68075333Y-67730571D01*
X68075333Y-67873428D01*
X68122952Y-67968666D01*
X68170571Y-68016285D01*
X68265809Y-68063904D01*
X68503904Y-68063904D01*
X68599142Y-68016285D01*
X68646761Y-67968666D01*
X68694380Y-67873428D01*
X68694380Y-67587714D01*
X68646761Y-67492476D01*
X68599142Y-67444857D01*
%TO.C,R54*%
X63253857Y-58829380D02*
X63587190Y-58353190D01*
X63825285Y-58829380D02*
X63825285Y-57829380D01*
X63444333Y-57829380D01*
X63349095Y-57877000D01*
X63301476Y-57924619D01*
X63253857Y-58019857D01*
X63253857Y-58162714D01*
X63301476Y-58257952D01*
X63349095Y-58305571D01*
X63444333Y-58353190D01*
X63825285Y-58353190D01*
X62349095Y-57829380D02*
X62825285Y-57829380D01*
X62872904Y-58305571D01*
X62825285Y-58257952D01*
X62730047Y-58210333D01*
X62491952Y-58210333D01*
X62396714Y-58257952D01*
X62349095Y-58305571D01*
X62301476Y-58400809D01*
X62301476Y-58638904D01*
X62349095Y-58734142D01*
X62396714Y-58781761D01*
X62491952Y-58829380D01*
X62730047Y-58829380D01*
X62825285Y-58781761D01*
X62872904Y-58734142D01*
X61444333Y-58162714D02*
X61444333Y-58829380D01*
X61682428Y-57781761D02*
X61920523Y-58496047D01*
X61301476Y-58496047D01*
%TO.C,R55*%
X83446857Y-76482380D02*
X83780190Y-76006190D01*
X84018285Y-76482380D02*
X84018285Y-75482380D01*
X83637333Y-75482380D01*
X83542095Y-75530000D01*
X83494476Y-75577619D01*
X83446857Y-75672857D01*
X83446857Y-75815714D01*
X83494476Y-75910952D01*
X83542095Y-75958571D01*
X83637333Y-76006190D01*
X84018285Y-76006190D01*
X82542095Y-75482380D02*
X83018285Y-75482380D01*
X83065904Y-75958571D01*
X83018285Y-75910952D01*
X82923047Y-75863333D01*
X82684952Y-75863333D01*
X82589714Y-75910952D01*
X82542095Y-75958571D01*
X82494476Y-76053809D01*
X82494476Y-76291904D01*
X82542095Y-76387142D01*
X82589714Y-76434761D01*
X82684952Y-76482380D01*
X82923047Y-76482380D01*
X83018285Y-76434761D01*
X83065904Y-76387142D01*
X81589714Y-75482380D02*
X82065904Y-75482380D01*
X82113523Y-75958571D01*
X82065904Y-75910952D01*
X81970666Y-75863333D01*
X81732571Y-75863333D01*
X81637333Y-75910952D01*
X81589714Y-75958571D01*
X81542095Y-76053809D01*
X81542095Y-76291904D01*
X81589714Y-76387142D01*
X81637333Y-76434761D01*
X81732571Y-76482380D01*
X81970666Y-76482380D01*
X82065904Y-76434761D01*
X82113523Y-76387142D01*
%TO.C,R56*%
X83192857Y-68694380D02*
X83526190Y-68218190D01*
X83764285Y-68694380D02*
X83764285Y-67694380D01*
X83383333Y-67694380D01*
X83288095Y-67742000D01*
X83240476Y-67789619D01*
X83192857Y-67884857D01*
X83192857Y-68027714D01*
X83240476Y-68122952D01*
X83288095Y-68170571D01*
X83383333Y-68218190D01*
X83764285Y-68218190D01*
X82288095Y-67694380D02*
X82764285Y-67694380D01*
X82811904Y-68170571D01*
X82764285Y-68122952D01*
X82669047Y-68075333D01*
X82430952Y-68075333D01*
X82335714Y-68122952D01*
X82288095Y-68170571D01*
X82240476Y-68265809D01*
X82240476Y-68503904D01*
X82288095Y-68599142D01*
X82335714Y-68646761D01*
X82430952Y-68694380D01*
X82669047Y-68694380D01*
X82764285Y-68646761D01*
X82811904Y-68599142D01*
X81383333Y-67694380D02*
X81573809Y-67694380D01*
X81669047Y-67742000D01*
X81716666Y-67789619D01*
X81811904Y-67932476D01*
X81859523Y-68122952D01*
X81859523Y-68503904D01*
X81811904Y-68599142D01*
X81764285Y-68646761D01*
X81669047Y-68694380D01*
X81478571Y-68694380D01*
X81383333Y-68646761D01*
X81335714Y-68599142D01*
X81288095Y-68503904D01*
X81288095Y-68265809D01*
X81335714Y-68170571D01*
X81383333Y-68122952D01*
X81478571Y-68075333D01*
X81669047Y-68075333D01*
X81764285Y-68122952D01*
X81811904Y-68170571D01*
X81859523Y-68265809D01*
%TO.C,R57*%
X83192857Y-65646380D02*
X83526190Y-65170190D01*
X83764285Y-65646380D02*
X83764285Y-64646380D01*
X83383333Y-64646380D01*
X83288095Y-64694000D01*
X83240476Y-64741619D01*
X83192857Y-64836857D01*
X83192857Y-64979714D01*
X83240476Y-65074952D01*
X83288095Y-65122571D01*
X83383333Y-65170190D01*
X83764285Y-65170190D01*
X82288095Y-64646380D02*
X82764285Y-64646380D01*
X82811904Y-65122571D01*
X82764285Y-65074952D01*
X82669047Y-65027333D01*
X82430952Y-65027333D01*
X82335714Y-65074952D01*
X82288095Y-65122571D01*
X82240476Y-65217809D01*
X82240476Y-65455904D01*
X82288095Y-65551142D01*
X82335714Y-65598761D01*
X82430952Y-65646380D01*
X82669047Y-65646380D01*
X82764285Y-65598761D01*
X82811904Y-65551142D01*
X81907142Y-64646380D02*
X81240476Y-64646380D01*
X81669047Y-65646380D01*
%TO.C,R58*%
X83192857Y-62598380D02*
X83526190Y-62122190D01*
X83764285Y-62598380D02*
X83764285Y-61598380D01*
X83383333Y-61598380D01*
X83288095Y-61646000D01*
X83240476Y-61693619D01*
X83192857Y-61788857D01*
X83192857Y-61931714D01*
X83240476Y-62026952D01*
X83288095Y-62074571D01*
X83383333Y-62122190D01*
X83764285Y-62122190D01*
X82288095Y-61598380D02*
X82764285Y-61598380D01*
X82811904Y-62074571D01*
X82764285Y-62026952D01*
X82669047Y-61979333D01*
X82430952Y-61979333D01*
X82335714Y-62026952D01*
X82288095Y-62074571D01*
X82240476Y-62169809D01*
X82240476Y-62407904D01*
X82288095Y-62503142D01*
X82335714Y-62550761D01*
X82430952Y-62598380D01*
X82669047Y-62598380D01*
X82764285Y-62550761D01*
X82811904Y-62503142D01*
X81669047Y-62026952D02*
X81764285Y-61979333D01*
X81811904Y-61931714D01*
X81859523Y-61836476D01*
X81859523Y-61788857D01*
X81811904Y-61693619D01*
X81764285Y-61646000D01*
X81669047Y-61598380D01*
X81478571Y-61598380D01*
X81383333Y-61646000D01*
X81335714Y-61693619D01*
X81288095Y-61788857D01*
X81288095Y-61836476D01*
X81335714Y-61931714D01*
X81383333Y-61979333D01*
X81478571Y-62026952D01*
X81669047Y-62026952D01*
X81764285Y-62074571D01*
X81811904Y-62122190D01*
X81859523Y-62217428D01*
X81859523Y-62407904D01*
X81811904Y-62503142D01*
X81764285Y-62550761D01*
X81669047Y-62598380D01*
X81478571Y-62598380D01*
X81383333Y-62550761D01*
X81335714Y-62503142D01*
X81288095Y-62407904D01*
X81288095Y-62217428D01*
X81335714Y-62122190D01*
X81383333Y-62074571D01*
X81478571Y-62026952D01*
%TO.C,R59*%
X83192857Y-59550380D02*
X83526190Y-59074190D01*
X83764285Y-59550380D02*
X83764285Y-58550380D01*
X83383333Y-58550380D01*
X83288095Y-58598000D01*
X83240476Y-58645619D01*
X83192857Y-58740857D01*
X83192857Y-58883714D01*
X83240476Y-58978952D01*
X83288095Y-59026571D01*
X83383333Y-59074190D01*
X83764285Y-59074190D01*
X82288095Y-58550380D02*
X82764285Y-58550380D01*
X82811904Y-59026571D01*
X82764285Y-58978952D01*
X82669047Y-58931333D01*
X82430952Y-58931333D01*
X82335714Y-58978952D01*
X82288095Y-59026571D01*
X82240476Y-59121809D01*
X82240476Y-59359904D01*
X82288095Y-59455142D01*
X82335714Y-59502761D01*
X82430952Y-59550380D01*
X82669047Y-59550380D01*
X82764285Y-59502761D01*
X82811904Y-59455142D01*
X81764285Y-59550380D02*
X81573809Y-59550380D01*
X81478571Y-59502761D01*
X81430952Y-59455142D01*
X81335714Y-59312285D01*
X81288095Y-59121809D01*
X81288095Y-58740857D01*
X81335714Y-58645619D01*
X81383333Y-58598000D01*
X81478571Y-58550380D01*
X81669047Y-58550380D01*
X81764285Y-58598000D01*
X81811904Y-58645619D01*
X81859523Y-58740857D01*
X81859523Y-58978952D01*
X81811904Y-59074190D01*
X81764285Y-59121809D01*
X81669047Y-59169428D01*
X81478571Y-59169428D01*
X81383333Y-59121809D01*
X81335714Y-59074190D01*
X81288095Y-58978952D01*
%TO.C,R60*%
X83192857Y-56502380D02*
X83526190Y-56026190D01*
X83764285Y-56502380D02*
X83764285Y-55502380D01*
X83383333Y-55502380D01*
X83288095Y-55550000D01*
X83240476Y-55597619D01*
X83192857Y-55692857D01*
X83192857Y-55835714D01*
X83240476Y-55930952D01*
X83288095Y-55978571D01*
X83383333Y-56026190D01*
X83764285Y-56026190D01*
X82335714Y-55502380D02*
X82526190Y-55502380D01*
X82621428Y-55550000D01*
X82669047Y-55597619D01*
X82764285Y-55740476D01*
X82811904Y-55930952D01*
X82811904Y-56311904D01*
X82764285Y-56407142D01*
X82716666Y-56454761D01*
X82621428Y-56502380D01*
X82430952Y-56502380D01*
X82335714Y-56454761D01*
X82288095Y-56407142D01*
X82240476Y-56311904D01*
X82240476Y-56073809D01*
X82288095Y-55978571D01*
X82335714Y-55930952D01*
X82430952Y-55883333D01*
X82621428Y-55883333D01*
X82716666Y-55930952D01*
X82764285Y-55978571D01*
X82811904Y-56073809D01*
X81621428Y-55502380D02*
X81526190Y-55502380D01*
X81430952Y-55550000D01*
X81383333Y-55597619D01*
X81335714Y-55692857D01*
X81288095Y-55883333D01*
X81288095Y-56121428D01*
X81335714Y-56311904D01*
X81383333Y-56407142D01*
X81430952Y-56454761D01*
X81526190Y-56502380D01*
X81621428Y-56502380D01*
X81716666Y-56454761D01*
X81764285Y-56407142D01*
X81811904Y-56311904D01*
X81859523Y-56121428D01*
X81859523Y-55883333D01*
X81811904Y-55692857D01*
X81764285Y-55597619D01*
X81716666Y-55550000D01*
X81621428Y-55502380D01*
%TO.C,R61*%
X83192857Y-53454380D02*
X83526190Y-52978190D01*
X83764285Y-53454380D02*
X83764285Y-52454380D01*
X83383333Y-52454380D01*
X83288095Y-52502000D01*
X83240476Y-52549619D01*
X83192857Y-52644857D01*
X83192857Y-52787714D01*
X83240476Y-52882952D01*
X83288095Y-52930571D01*
X83383333Y-52978190D01*
X83764285Y-52978190D01*
X82335714Y-52454380D02*
X82526190Y-52454380D01*
X82621428Y-52502000D01*
X82669047Y-52549619D01*
X82764285Y-52692476D01*
X82811904Y-52882952D01*
X82811904Y-53263904D01*
X82764285Y-53359142D01*
X82716666Y-53406761D01*
X82621428Y-53454380D01*
X82430952Y-53454380D01*
X82335714Y-53406761D01*
X82288095Y-53359142D01*
X82240476Y-53263904D01*
X82240476Y-53025809D01*
X82288095Y-52930571D01*
X82335714Y-52882952D01*
X82430952Y-52835333D01*
X82621428Y-52835333D01*
X82716666Y-52882952D01*
X82764285Y-52930571D01*
X82811904Y-53025809D01*
X81288095Y-53454380D02*
X81859523Y-53454380D01*
X81573809Y-53454380D02*
X81573809Y-52454380D01*
X81669047Y-52597238D01*
X81764285Y-52692476D01*
X81859523Y-52740095D01*
%TO.C,R62*%
X83192857Y-50406380D02*
X83526190Y-49930190D01*
X83764285Y-50406380D02*
X83764285Y-49406380D01*
X83383333Y-49406380D01*
X83288095Y-49454000D01*
X83240476Y-49501619D01*
X83192857Y-49596857D01*
X83192857Y-49739714D01*
X83240476Y-49834952D01*
X83288095Y-49882571D01*
X83383333Y-49930190D01*
X83764285Y-49930190D01*
X82335714Y-49406380D02*
X82526190Y-49406380D01*
X82621428Y-49454000D01*
X82669047Y-49501619D01*
X82764285Y-49644476D01*
X82811904Y-49834952D01*
X82811904Y-50215904D01*
X82764285Y-50311142D01*
X82716666Y-50358761D01*
X82621428Y-50406380D01*
X82430952Y-50406380D01*
X82335714Y-50358761D01*
X82288095Y-50311142D01*
X82240476Y-50215904D01*
X82240476Y-49977809D01*
X82288095Y-49882571D01*
X82335714Y-49834952D01*
X82430952Y-49787333D01*
X82621428Y-49787333D01*
X82716666Y-49834952D01*
X82764285Y-49882571D01*
X82811904Y-49977809D01*
X81859523Y-49501619D02*
X81811904Y-49454000D01*
X81716666Y-49406380D01*
X81478571Y-49406380D01*
X81383333Y-49454000D01*
X81335714Y-49501619D01*
X81288095Y-49596857D01*
X81288095Y-49692095D01*
X81335714Y-49834952D01*
X81907142Y-50406380D01*
X81288095Y-50406380D01*
%TO.C,R63*%
X95892857Y-76482380D02*
X96226190Y-76006190D01*
X96464285Y-76482380D02*
X96464285Y-75482380D01*
X96083333Y-75482380D01*
X95988095Y-75530000D01*
X95940476Y-75577619D01*
X95892857Y-75672857D01*
X95892857Y-75815714D01*
X95940476Y-75910952D01*
X95988095Y-75958571D01*
X96083333Y-76006190D01*
X96464285Y-76006190D01*
X95035714Y-75482380D02*
X95226190Y-75482380D01*
X95321428Y-75530000D01*
X95369047Y-75577619D01*
X95464285Y-75720476D01*
X95511904Y-75910952D01*
X95511904Y-76291904D01*
X95464285Y-76387142D01*
X95416666Y-76434761D01*
X95321428Y-76482380D01*
X95130952Y-76482380D01*
X95035714Y-76434761D01*
X94988095Y-76387142D01*
X94940476Y-76291904D01*
X94940476Y-76053809D01*
X94988095Y-75958571D01*
X95035714Y-75910952D01*
X95130952Y-75863333D01*
X95321428Y-75863333D01*
X95416666Y-75910952D01*
X95464285Y-75958571D01*
X95511904Y-76053809D01*
X94607142Y-75482380D02*
X93988095Y-75482380D01*
X94321428Y-75863333D01*
X94178571Y-75863333D01*
X94083333Y-75910952D01*
X94035714Y-75958571D01*
X93988095Y-76053809D01*
X93988095Y-76291904D01*
X94035714Y-76387142D01*
X94083333Y-76434761D01*
X94178571Y-76482380D01*
X94464285Y-76482380D01*
X94559523Y-76434761D01*
X94607142Y-76387142D01*
%TO.C,R64*%
X95892857Y-73434380D02*
X96226190Y-72958190D01*
X96464285Y-73434380D02*
X96464285Y-72434380D01*
X96083333Y-72434380D01*
X95988095Y-72482000D01*
X95940476Y-72529619D01*
X95892857Y-72624857D01*
X95892857Y-72767714D01*
X95940476Y-72862952D01*
X95988095Y-72910571D01*
X96083333Y-72958190D01*
X96464285Y-72958190D01*
X95035714Y-72434380D02*
X95226190Y-72434380D01*
X95321428Y-72482000D01*
X95369047Y-72529619D01*
X95464285Y-72672476D01*
X95511904Y-72862952D01*
X95511904Y-73243904D01*
X95464285Y-73339142D01*
X95416666Y-73386761D01*
X95321428Y-73434380D01*
X95130952Y-73434380D01*
X95035714Y-73386761D01*
X94988095Y-73339142D01*
X94940476Y-73243904D01*
X94940476Y-73005809D01*
X94988095Y-72910571D01*
X95035714Y-72862952D01*
X95130952Y-72815333D01*
X95321428Y-72815333D01*
X95416666Y-72862952D01*
X95464285Y-72910571D01*
X95511904Y-73005809D01*
X94083333Y-72767714D02*
X94083333Y-73434380D01*
X94321428Y-72386761D02*
X94559523Y-73101047D01*
X93940476Y-73101047D01*
%TO.C,R65*%
X95892857Y-70386380D02*
X96226190Y-69910190D01*
X96464285Y-70386380D02*
X96464285Y-69386380D01*
X96083333Y-69386380D01*
X95988095Y-69434000D01*
X95940476Y-69481619D01*
X95892857Y-69576857D01*
X95892857Y-69719714D01*
X95940476Y-69814952D01*
X95988095Y-69862571D01*
X96083333Y-69910190D01*
X96464285Y-69910190D01*
X95035714Y-69386380D02*
X95226190Y-69386380D01*
X95321428Y-69434000D01*
X95369047Y-69481619D01*
X95464285Y-69624476D01*
X95511904Y-69814952D01*
X95511904Y-70195904D01*
X95464285Y-70291142D01*
X95416666Y-70338761D01*
X95321428Y-70386380D01*
X95130952Y-70386380D01*
X95035714Y-70338761D01*
X94988095Y-70291142D01*
X94940476Y-70195904D01*
X94940476Y-69957809D01*
X94988095Y-69862571D01*
X95035714Y-69814952D01*
X95130952Y-69767333D01*
X95321428Y-69767333D01*
X95416666Y-69814952D01*
X95464285Y-69862571D01*
X95511904Y-69957809D01*
X94035714Y-69386380D02*
X94511904Y-69386380D01*
X94559523Y-69862571D01*
X94511904Y-69814952D01*
X94416666Y-69767333D01*
X94178571Y-69767333D01*
X94083333Y-69814952D01*
X94035714Y-69862571D01*
X93988095Y-69957809D01*
X93988095Y-70195904D01*
X94035714Y-70291142D01*
X94083333Y-70338761D01*
X94178571Y-70386380D01*
X94416666Y-70386380D01*
X94511904Y-70338761D01*
X94559523Y-70291142D01*
%TO.C,R66*%
X95892857Y-67338380D02*
X96226190Y-66862190D01*
X96464285Y-67338380D02*
X96464285Y-66338380D01*
X96083333Y-66338380D01*
X95988095Y-66386000D01*
X95940476Y-66433619D01*
X95892857Y-66528857D01*
X95892857Y-66671714D01*
X95940476Y-66766952D01*
X95988095Y-66814571D01*
X96083333Y-66862190D01*
X96464285Y-66862190D01*
X95035714Y-66338380D02*
X95226190Y-66338380D01*
X95321428Y-66386000D01*
X95369047Y-66433619D01*
X95464285Y-66576476D01*
X95511904Y-66766952D01*
X95511904Y-67147904D01*
X95464285Y-67243142D01*
X95416666Y-67290761D01*
X95321428Y-67338380D01*
X95130952Y-67338380D01*
X95035714Y-67290761D01*
X94988095Y-67243142D01*
X94940476Y-67147904D01*
X94940476Y-66909809D01*
X94988095Y-66814571D01*
X95035714Y-66766952D01*
X95130952Y-66719333D01*
X95321428Y-66719333D01*
X95416666Y-66766952D01*
X95464285Y-66814571D01*
X95511904Y-66909809D01*
X94083333Y-66338380D02*
X94273809Y-66338380D01*
X94369047Y-66386000D01*
X94416666Y-66433619D01*
X94511904Y-66576476D01*
X94559523Y-66766952D01*
X94559523Y-67147904D01*
X94511904Y-67243142D01*
X94464285Y-67290761D01*
X94369047Y-67338380D01*
X94178571Y-67338380D01*
X94083333Y-67290761D01*
X94035714Y-67243142D01*
X93988095Y-67147904D01*
X93988095Y-66909809D01*
X94035714Y-66814571D01*
X94083333Y-66766952D01*
X94178571Y-66719333D01*
X94369047Y-66719333D01*
X94464285Y-66766952D01*
X94511904Y-66814571D01*
X94559523Y-66909809D01*
%TO.C,R67*%
X95892857Y-64290380D02*
X96226190Y-63814190D01*
X96464285Y-64290380D02*
X96464285Y-63290380D01*
X96083333Y-63290380D01*
X95988095Y-63338000D01*
X95940476Y-63385619D01*
X95892857Y-63480857D01*
X95892857Y-63623714D01*
X95940476Y-63718952D01*
X95988095Y-63766571D01*
X96083333Y-63814190D01*
X96464285Y-63814190D01*
X95035714Y-63290380D02*
X95226190Y-63290380D01*
X95321428Y-63338000D01*
X95369047Y-63385619D01*
X95464285Y-63528476D01*
X95511904Y-63718952D01*
X95511904Y-64099904D01*
X95464285Y-64195142D01*
X95416666Y-64242761D01*
X95321428Y-64290380D01*
X95130952Y-64290380D01*
X95035714Y-64242761D01*
X94988095Y-64195142D01*
X94940476Y-64099904D01*
X94940476Y-63861809D01*
X94988095Y-63766571D01*
X95035714Y-63718952D01*
X95130952Y-63671333D01*
X95321428Y-63671333D01*
X95416666Y-63718952D01*
X95464285Y-63766571D01*
X95511904Y-63861809D01*
X94607142Y-63290380D02*
X93940476Y-63290380D01*
X94369047Y-64290380D01*
%TO.C,R68*%
X95892857Y-61242380D02*
X96226190Y-60766190D01*
X96464285Y-61242380D02*
X96464285Y-60242380D01*
X96083333Y-60242380D01*
X95988095Y-60290000D01*
X95940476Y-60337619D01*
X95892857Y-60432857D01*
X95892857Y-60575714D01*
X95940476Y-60670952D01*
X95988095Y-60718571D01*
X96083333Y-60766190D01*
X96464285Y-60766190D01*
X95035714Y-60242380D02*
X95226190Y-60242380D01*
X95321428Y-60290000D01*
X95369047Y-60337619D01*
X95464285Y-60480476D01*
X95511904Y-60670952D01*
X95511904Y-61051904D01*
X95464285Y-61147142D01*
X95416666Y-61194761D01*
X95321428Y-61242380D01*
X95130952Y-61242380D01*
X95035714Y-61194761D01*
X94988095Y-61147142D01*
X94940476Y-61051904D01*
X94940476Y-60813809D01*
X94988095Y-60718571D01*
X95035714Y-60670952D01*
X95130952Y-60623333D01*
X95321428Y-60623333D01*
X95416666Y-60670952D01*
X95464285Y-60718571D01*
X95511904Y-60813809D01*
X94369047Y-60670952D02*
X94464285Y-60623333D01*
X94511904Y-60575714D01*
X94559523Y-60480476D01*
X94559523Y-60432857D01*
X94511904Y-60337619D01*
X94464285Y-60290000D01*
X94369047Y-60242380D01*
X94178571Y-60242380D01*
X94083333Y-60290000D01*
X94035714Y-60337619D01*
X93988095Y-60432857D01*
X93988095Y-60480476D01*
X94035714Y-60575714D01*
X94083333Y-60623333D01*
X94178571Y-60670952D01*
X94369047Y-60670952D01*
X94464285Y-60718571D01*
X94511904Y-60766190D01*
X94559523Y-60861428D01*
X94559523Y-61051904D01*
X94511904Y-61147142D01*
X94464285Y-61194761D01*
X94369047Y-61242380D01*
X94178571Y-61242380D01*
X94083333Y-61194761D01*
X94035714Y-61147142D01*
X93988095Y-61051904D01*
X93988095Y-60861428D01*
X94035714Y-60766190D01*
X94083333Y-60718571D01*
X94178571Y-60670952D01*
%TO.C,R69*%
X95892857Y-58194380D02*
X96226190Y-57718190D01*
X96464285Y-58194380D02*
X96464285Y-57194380D01*
X96083333Y-57194380D01*
X95988095Y-57242000D01*
X95940476Y-57289619D01*
X95892857Y-57384857D01*
X95892857Y-57527714D01*
X95940476Y-57622952D01*
X95988095Y-57670571D01*
X96083333Y-57718190D01*
X96464285Y-57718190D01*
X95035714Y-57194380D02*
X95226190Y-57194380D01*
X95321428Y-57242000D01*
X95369047Y-57289619D01*
X95464285Y-57432476D01*
X95511904Y-57622952D01*
X95511904Y-58003904D01*
X95464285Y-58099142D01*
X95416666Y-58146761D01*
X95321428Y-58194380D01*
X95130952Y-58194380D01*
X95035714Y-58146761D01*
X94988095Y-58099142D01*
X94940476Y-58003904D01*
X94940476Y-57765809D01*
X94988095Y-57670571D01*
X95035714Y-57622952D01*
X95130952Y-57575333D01*
X95321428Y-57575333D01*
X95416666Y-57622952D01*
X95464285Y-57670571D01*
X95511904Y-57765809D01*
X94464285Y-58194380D02*
X94273809Y-58194380D01*
X94178571Y-58146761D01*
X94130952Y-58099142D01*
X94035714Y-57956285D01*
X93988095Y-57765809D01*
X93988095Y-57384857D01*
X94035714Y-57289619D01*
X94083333Y-57242000D01*
X94178571Y-57194380D01*
X94369047Y-57194380D01*
X94464285Y-57242000D01*
X94511904Y-57289619D01*
X94559523Y-57384857D01*
X94559523Y-57622952D01*
X94511904Y-57718190D01*
X94464285Y-57765809D01*
X94369047Y-57813428D01*
X94178571Y-57813428D01*
X94083333Y-57765809D01*
X94035714Y-57718190D01*
X93988095Y-57622952D01*
%TO.C,R70*%
X95892857Y-55146380D02*
X96226190Y-54670190D01*
X96464285Y-55146380D02*
X96464285Y-54146380D01*
X96083333Y-54146380D01*
X95988095Y-54194000D01*
X95940476Y-54241619D01*
X95892857Y-54336857D01*
X95892857Y-54479714D01*
X95940476Y-54574952D01*
X95988095Y-54622571D01*
X96083333Y-54670190D01*
X96464285Y-54670190D01*
X95559523Y-54146380D02*
X94892857Y-54146380D01*
X95321428Y-55146380D01*
X94321428Y-54146380D02*
X94226190Y-54146380D01*
X94130952Y-54194000D01*
X94083333Y-54241619D01*
X94035714Y-54336857D01*
X93988095Y-54527333D01*
X93988095Y-54765428D01*
X94035714Y-54955904D01*
X94083333Y-55051142D01*
X94130952Y-55098761D01*
X94226190Y-55146380D01*
X94321428Y-55146380D01*
X94416666Y-55098761D01*
X94464285Y-55051142D01*
X94511904Y-54955904D01*
X94559523Y-54765428D01*
X94559523Y-54527333D01*
X94511904Y-54336857D01*
X94464285Y-54241619D01*
X94416666Y-54194000D01*
X94321428Y-54146380D01*
%TO.C,R71*%
X73434380Y-81907142D02*
X72958190Y-81573809D01*
X73434380Y-81335714D02*
X72434380Y-81335714D01*
X72434380Y-81716666D01*
X72482000Y-81811904D01*
X72529619Y-81859523D01*
X72624857Y-81907142D01*
X72767714Y-81907142D01*
X72862952Y-81859523D01*
X72910571Y-81811904D01*
X72958190Y-81716666D01*
X72958190Y-81335714D01*
X72434380Y-82240476D02*
X72434380Y-82907142D01*
X73434380Y-82478571D01*
X73434380Y-83811904D02*
X73434380Y-83240476D01*
X73434380Y-83526190D02*
X72434380Y-83526190D01*
X72577238Y-83430952D01*
X72672476Y-83335714D01*
X72720095Y-83240476D01*
%TO.C,R72*%
X76990380Y-88765142D02*
X76514190Y-88431809D01*
X76990380Y-88193714D02*
X75990380Y-88193714D01*
X75990380Y-88574666D01*
X76038000Y-88669904D01*
X76085619Y-88717523D01*
X76180857Y-88765142D01*
X76323714Y-88765142D01*
X76418952Y-88717523D01*
X76466571Y-88669904D01*
X76514190Y-88574666D01*
X76514190Y-88193714D01*
X75990380Y-89098476D02*
X75990380Y-89765142D01*
X76990380Y-89336571D01*
X76085619Y-90098476D02*
X76038000Y-90146095D01*
X75990380Y-90241333D01*
X75990380Y-90479428D01*
X76038000Y-90574666D01*
X76085619Y-90622285D01*
X76180857Y-90669904D01*
X76276095Y-90669904D01*
X76418952Y-90622285D01*
X76990380Y-90050857D01*
X76990380Y-90669904D01*
%TO.C,U1*%
X63245904Y-85094380D02*
X63245904Y-85903904D01*
X63198285Y-85999142D01*
X63150666Y-86046761D01*
X63055428Y-86094380D01*
X62864952Y-86094380D01*
X62769714Y-86046761D01*
X62722095Y-85999142D01*
X62674476Y-85903904D01*
X62674476Y-85094380D01*
X61674476Y-86094380D02*
X62245904Y-86094380D01*
X61960190Y-86094380D02*
X61960190Y-85094380D01*
X62055428Y-85237238D01*
X62150666Y-85332476D01*
X62245904Y-85380095D01*
%TO.C,J2*%
X105743333Y-99250380D02*
X105743333Y-99964666D01*
X105790952Y-100107523D01*
X105886190Y-100202761D01*
X106029047Y-100250380D01*
X106124285Y-100250380D01*
X105314761Y-99345619D02*
X105267142Y-99298000D01*
X105171904Y-99250380D01*
X104933809Y-99250380D01*
X104838571Y-99298000D01*
X104790952Y-99345619D01*
X104743333Y-99440857D01*
X104743333Y-99536095D01*
X104790952Y-99678952D01*
X105362380Y-100250380D01*
X104743333Y-100250380D01*
%TD*%
M02*
